<?xml version="1.0" encoding="utf-8"?>
<!-- Generator: Adobe Illustrator 26.3.1, SVG Export Plug-In . SVG Version: 6.00 Build 0)  -->
<svg version="1.1" id="katman_1" xmlns="http://www.w3.org/2000/svg" xmlns:xlink="http://www.w3.org/1999/xlink" x="0px" y="0px"
	 viewBox="0 0 512 512" style="enable-background:new 0 0 512 512;background-color: #1B1B29" xml:space="preserve">
<style type="text/css">
	.st0{fill:none;}
	.st1{fill:url(#SVGID_1_);}
	.st2{fill:#303030;}
	.st3{fill:url(#SVGID_00000153707665870002374990000000872619248349533059_);}
	.st4{fill:url(#SVGID_00000110446206123915001970000007415821771588940731_);}
	.st5{fill:url(#SVGID_00000144318772548509008690000001445964425550703294_);}
	.st6{fill:url(#SVGID_00000109020317622041524120000009344734724345782965_);}
	.st7{fill:#0A67A8;}
	.st8{fill:url(#SVGID_00000047035613925617693310000004306008135968413623_);}
	.st9{fill:url(#SVGID_00000183244607211830721690000010966487951569091229_);}
	.st10{fill:url(#SVGID_00000092455979789364155220000012561438786093812151_);}
	.st11{fill:url(#SVGID_00000021817565596461845490000013168777791981456571_);}
	.st12{fill:url(#SVGID_00000053504535311911369030000018187236197617357976_);}
	.st13{fill:#FFFFFF;}
	.st14{fill:#FFD717;}
	.st15{fill:#FEE262;}
	.st16{fill:#FFF7B3;}
	.st17{fill:#FFC6B2;}
	.st18{fill:#FEE066;}
</style>
<path class="st0" d="z"/>
<radialGradient id="SVGID_1_" cx="-1621.6168" cy="920.6498" r="148.696" gradientTransform="matrix(4.2547 0 0 4.2546 7280.6802 -3270.5215)" gradientUnits="userSpaceOnUse">
	<stop  offset="0.334" style="stop-color:#3049B4"/>
	<stop  offset="0.525" style="stop-color:#2D46AF"/>
	<stop  offset="0.737" style="stop-color:#263EA2"/>
	<stop  offset="0.958" style="stop-color:#1A308C"/>
	<stop  offset="1" style="stop-color:#172D87"/>
</radialGradient>
<path class="st1" d="M480,512.2H32c-17.7,0-32-14.3-32-32v-448c0-17.7,14.3-32,32-32h448c17.7,0,32,14.3,32,32v448
	C512.1,497.9,497.7,512.2,480,512.2z"/>
<path class="st2" d="M0,442.1v38.1c0,17.7,14.3,32,32,32h448c17.7,0,32-14.3,32-32V400c0,0-36.3-23.2-57.8-34.8
	c-21.4-11.6-48.9-19-59.5-18.3s-44.8,20.8-64,36.8s-55.5,49.9-55.5,49.9s-35.1-12.5-51-12.8c-23-0.4-66.4,25.7-66.4,25.7
	s-65.9-34-82.3-35.1S0,442.1,0,442.1z"/>
<radialGradient id="SVGID_00000151513533437259868220000003414247867076344971_" cx="-1712.0698" cy="732.7809" r="137.842" gradientTransform="matrix(4.2547 0 0 4.2546 7280.6802 -3270.5215)" gradientUnits="userSpaceOnUse">
	<stop  offset="0.756" style="stop-color:#9079F1"/>
	<stop  offset="1" style="stop-color:#6366D6"/>
</radialGradient>
<path style="fill:url(#SVGID_00000151513533437259868220000003414247867076344971_);" d="M0,434.5c0,0,22-10.9,35-19.8
	c13-8.8,33.9-24.5,38-25.5c4.2-1,50.5-1.6,91.1-4.2s63.5-4.2,71.3-6.8s57.3-39.6,60.4-42.2s16.1-18.8,25.5-27.6
	c9.4-8.8,26-27.1,35.9-38s59.9-96.9,68.2-103.6c8.3-6.8,86.4-31.5,86.4-31.5V52.5c0,0-52,38.3-55.7,38.3s-49.5-9.4-67.2-7.8
	c-17.7,1.6-26.5,3.1-26.5,3.1s-48.7,33.8-52.3,39c-3.6,5.2-51.6,109.9-51.6,109.9l-97.9,15.1c0,0-44.8-2.1-53.1,2.1
	s-40.6,29.7-45.3,36S35.1,329.3,32,335.1c-3.1,5.7-10.4,20.8-10.4,20.8L0.2,377.5L0,434.5L0,434.5z"/>
<radialGradient id="SVGID_00000132061030960584371250000017593916800359123106_" cx="-1624.0857" cy="766.0597" r="52.806" gradientTransform="matrix(4.2547 0 0 4.2546 7280.6802 -3270.5215)" gradientUnits="userSpaceOnUse">
	<stop  offset="0.388" style="stop-color:#6D66D7"/>
	<stop  offset="0.936" style="stop-color:#6D66D7;stop-opacity:0"/>
</radialGradient>
<path style="fill:url(#SVGID_00000132061030960584371250000017593916800359123106_);" d="M0,434.5c0,0,22-10.9,35-19.8
	c13-8.8,33.9-24.5,38-25.5c4.2-1,50.5-1.6,91.1-4.2s63.5-4.2,71.3-6.8s57.3-39.6,60.4-42.2s16.1-18.8,25.5-27.6
	c9.4-8.8,26-27.1,35.9-38s59.9-96.9,68.2-103.6c8.3-6.8,86.4-31.5,86.4-31.5V52.5c0,0-52,38.3-55.7,38.3s-51.4-7.7-67.2-7.8
	c-15.8-0.1-20.1,0.9-26.5,3.1c-6.5,2.3-49,33.9-52.6,39.1S258.5,235,258.5,235l-97.9,15.1c0,0-44.8-2.1-53.1,2.1s-40.6,29.7-45.3,36
	S35.1,329.3,32,335.1c-3.1,5.7-10.4,20.8-10.4,20.8L0.2,377.5L0,434.5L0,434.5z"/>
<radialGradient id="SVGID_00000093859259235038674150000013752676377580663977_" cx="-1582.3799" cy="793.2668" r="29.462" gradientTransform="matrix(4.2547 0 0 4.2546 7280.6802 -3270.5215)" gradientUnits="userSpaceOnUse">
	<stop  offset="0" style="stop-color:#273E9B"/>
	<stop  offset="0.861" style="stop-color:#273E9B;stop-opacity:0"/>
</radialGradient>
<path style="fill:url(#SVGID_00000093859259235038674150000013752676377580663977_);" d="M425.6,166.8c8.3-6.8,86.4-31.5,86.4-31.5
	V52.5c0,0-52,38.3-55.7,38.3c0,0-37.6,0-40.9,31.3S425.6,166.8,425.6,166.8z"/>
<radialGradient id="SVGID_00000059999117567091506890000000363036971835405963_" cx="-1717.6587" cy="881.3469" r="30.417" gradientTransform="matrix(4.2547 0 0 4.2546 7280.6802 -3270.5215)" gradientUnits="userSpaceOnUse">
	<stop  offset="0.2" style="stop-color:#273E9B"/>
	<stop  offset="1" style="stop-color:#273E9B;stop-opacity:0"/>
</radialGradient>
<path style="fill:url(#SVGID_00000059999117567091506890000000363036971835405963_);" d="M21.6,355.8L0.2,377.4v57.1
	c0,0,22-10.9,35-19.8c13-8.8,33.9-24.5,38-25.5l39.7-2.3c0,0-18.5-43.6-32.9-50.5C39.9,317.2,21.6,355.8,21.6,355.8z"/>
<path class="st7" d="M479.5,116c2,5,32.5,0.3,32.5,0.3V74.8c0,0-10.3,6.8-19,16.6C484.7,100.6,476.5,108.6,479.5,116z"/>
<radialGradient id="SVGID_00000089560517184325829870000003634675141646379157_" cx="-1665.0676" cy="-442.6899" r="28.335" gradientTransform="matrix(2.3325 3.5586 -6.1583 4.0359 1479.6986 7826.5239)" gradientUnits="userSpaceOnUse">
	<stop  offset="0.208" style="stop-color:#6D66D7"/>
	<stop  offset="0.35" style="stop-color:#6066D1"/>
	<stop  offset="0.616" style="stop-color:#3D66C0"/>
	<stop  offset="0.943" style="stop-color:#0A67A8"/>
</radialGradient>
<path style="fill:url(#SVGID_00000089560517184325829870000003634675141646379157_);" d="M453.5,125.1c1,2.9-29.4,16.8-38.8,20.9
	c-9.4,4-16.8,7.4-20.2,10.8s-9.4,15.2-13.8,30.7s-6.4,27.7-9.8,31.4s-19.9,8.4-22.6,10.1s-17.5,26.3-23.3,34.4
	c-5.7,8.1-31.7,29-41.5,35.7s-43.5,31-50.9,21.2s11.8-37.4,14.5-40.8s19.6-13.1,19.6-13.1s10.5-54.6,14.2-61.1
	c3.7-6.4,15.2-8.4,20.9-10.8c5.7-2.3,10.1-3.4,10.1-3.4s11.8-11.1,17.5-14.5s15.2-2.7,15.2-2.7s8.8-43.8,13.8-50.6
	c5.1-6.8,32.4-8.1,44.2-11.1C414.5,109.3,447.1,106.9,453.5,125.1z"/>
<radialGradient id="SVGID_00000178171956100327090630000016430225644071803276_" cx="-1691.287" cy="-506.5392" r="39.099" gradientTransform="matrix(2.492 3.4484 -4.6296 3.3454 1927.2714 7739.7617)" gradientUnits="userSpaceOnUse">
	<stop  offset="0.461" style="stop-color:#9079F1"/>
	<stop  offset="0.517" style="stop-color:#8A78EE"/>
	<stop  offset="0.59" style="stop-color:#7A76E5"/>
	<stop  offset="0.67" style="stop-color:#6073D7"/>
	<stop  offset="0.758" style="stop-color:#3B6EC3"/>
	<stop  offset="0.849" style="stop-color:#0D67AA"/>
	<stop  offset="0.854" style="stop-color:#0A67A8"/>
</radialGradient>
<path style="fill:url(#SVGID_00000178171956100327090630000016430225644071803276_);" d="M40.9,372.3c4.2,3.7,10.1-1,37.4-5.7
	s73.8-3,79.2-5.1c5.4-2,42.2-10.1,48.2-16.8c6.1-6.8,5.4-49.2,7.4-62.7s8.1-51.6,6.8-59c-1.4-7.4-10.5-5.4-13.1,1.7
	c-2.7,7-16.2,41.7-26.4,46.1c-10.1,4.4-16.5,5.1-19.2,7.4s-27.3,28.7-30,29s-28-6.8-33.4-4c-5.4,2.7-24.9,19.6-29.4,24.6
	C64.1,332.8,34.5,366.6,40.9,372.3z"/>
<radialGradient id="SVGID_00000075124325755888246980000006891103934171806896_" cx="-1652.8038" cy="862.7368" r="55.124" gradientTransform="matrix(4.2547 0 0 4.2546 7280.6802 -3270.5215)" gradientUnits="userSpaceOnUse">
	<stop  offset="0.351" style="stop-color:#D0B4F4;stop-opacity:4.900000e-02"/>
	<stop  offset="0.679" style="stop-color:#D0B4F4"/>
</radialGradient>
<path style="fill:url(#SVGID_00000075124325755888246980000006891103934171806896_);" d="M139,282.3c0,0,7.9-60.3,44.4-97.6
	c20.4-20.8,111-3.3,115.2-1.2c4.2,2.1,39.1,108.8,39.1,108.8s-39.6,42.2-41.6,43.7c-2.1,1.6-56.2,41.7-60.4,42.2
	C231.4,378.7,139,282.3,139,282.3z"/>
<radialGradient id="SVGID_00000158748180352798853610000001787049814802030482_" cx="-1642.3077" cy="831.9669" r="19.437" gradientTransform="matrix(4.2547 0 0 4.2546 7280.6802 -3270.5215)" gradientUnits="userSpaceOnUse">
	<stop  offset="0.189" style="stop-color:#0A67A8"/>
	<stop  offset="1" style="stop-color:#0A67A8;stop-opacity:2.000000e-02"/>
</radialGradient>
<path style="fill:url(#SVGID_00000158748180352798853610000001787049814802030482_);" d="M380.7,187.5c-4.4,15.5-6.4,27.7-9.8,31.4
	s-19.9,8.4-22.6,10.1c-2.7,1.7-17.5,26.3-23.3,34.4c-5.8,8.1-31.7,29-41.5,35.7s-43.5,31-50.9,21.2s11.8-37.4,14.5-40.8
	s19.6-13.1,19.6-13.1s10.5-54.6,14.2-61.1c3.7-6.4,15.2-8.4,20.9-10.8c5.7-2.3,10.1-3.4,10.1-3.4s11.8-11.1,17.5-14.5
	s15.2-2.7,15.2-2.7S385.1,172,380.7,187.5z"/>
<radialGradient id="SVGID_00000130639692849086280550000009415370921720558489_" cx="-1658.9889" cy="816.6338" r="17.383" gradientTransform="matrix(4.2547 0 0 4.2546 7280.6802 -3270.5215)" gradientUnits="userSpaceOnUse">
	<stop  offset="1.100000e-02" style="stop-color:#0A67A8"/>
	<stop  offset="1" style="stop-color:#0A67A8;stop-opacity:2.000000e-02"/>
</radialGradient>
<path style="fill:url(#SVGID_00000130639692849086280550000009415370921720558489_);" d="M157.5,361.5c5.4-2,42.2-10.1,48.2-16.8
	c6.1-6.8,5.4-49.2,7.4-62.7s8.1-51.6,6.8-59c-1.4-7.4-10.5-5.4-13.1,1.7c-2.7,7-16.2,41.7-26.4,46.1c-10.1,4.4-16.5,5.1-19.2,7.4
	s-27.3,28.7-30,29s-28-6.8-33.4-4C92.5,305.8,152.2,363.5,157.5,361.5z"/>
<path class="st13" d="M218.7,197.2c-1.6,2.9-1.3,7.1,1.8,9.4c3.4,2.6,8,1.5,9.8-1.4c1.8-2.7,2-7.2-2.2-10.1
	C224.6,192.7,220.3,194.3,218.7,197.2z"/>
<path class="st13" d="M251.2,209.3c-1.3,2.3-0.6,4.9,1.9,6.2c2.5,1.2,4.9-0.2,5.7-1.8c1-2-0.2-5.4-2.3-6
	C255,207.1,252.3,207.2,251.2,209.3z"/>
<path class="st13" d="M251.8,227.8c-2.6-0.2-5.1,1.7-5.3,4.9s1.4,5.7,4.8,5.7c3.6,0,5-2.3,5.3-4.4
	C256.9,232,255.8,228.1,251.8,227.8z"/>
<path class="st13" d="M296.4,244.9c-1.1,3.8,1.2,8.2,6.3,8.5c5.1,0.3,7.3-3,7.3-7.4c0-3.5-2.9-6.4-7.2-6.3
	C299.3,239.8,297.2,242.1,296.4,244.9z"/>
<path class="st13" d="M302.1,180.3c2.6,2.2,1.9,5.4,0.2,7c-1.7,1.6-4.7,1.7-6.3,0.2c-2.2-2.1-2-5.1-0.5-6.7
	C297.3,178.8,300.2,178.7,302.1,180.3z"/>
<path class="st13" d="M287.6,315.3c-2.2,2.9-1.4,7,1.7,8.8c2.7,1.6,6.2,1.5,8.3-1.7c2.1-3.2,0.5-7.5-1.7-8.8
	C293.8,312.4,289.9,312.4,287.6,315.3z"/>
<path class="st13" d="M237.9,328.1c-0.1,2.1,1,3.8,3.3,3.9s3.3-1.4,3.4-3.3s-1.3-3.5-3.2-3.6c-0.1,0-0.2,0-0.2,0
	C239.4,325.1,238,326.7,237.9,328.1z"/>
<path class="st13" d="M217,301c-0.3,3.4,1.7,5.9,5.1,5.8c3.4-0.1,5.5-1.1,5.6-5.1c0.1-3.9-2.9-5.3-5.3-5.4
	C219.9,296.2,217.2,298,217,301z"/>
<path class="st13" d="M226.2,162.9c-0.3,3.7,2.9,5.5,5.2,5.6c2.9,0.1,5.4-1.2,5.5-5.1c0.1-4.3-2.6-5.6-5.2-5.6
	C229.7,157.8,226.6,159.1,226.2,162.9z"/>
<path class="st14" d="M249.1,173.5c0,0-5.9-17.5-3.6-19.1c2.1-1.6,17.6,7.7,17.6,7.7s12.5-8.9,15-7.2c2.3,1.6-2.1,16.3-2.1,16.3
	s11.7,8.7,11.4,10.9c-0.3,2.7-15.1,5.8-15.1,5.8s-4.4,15.2-7.4,15.5c-2.1,0.2-9.6-14.3-9.6-14.3s-17,2.2-17.7,0.1
	C236.4,185.6,249.1,173.5,249.1,173.5z"/>
<path class="st15" d="M284.7,271.4c0,0,2.7-12.4,4.9-12.9c2.2-0.5,8.8,10.5,8.8,10.5s14.8-1.9,16,0.7c1,2.2-8.3,12.4-8.3,12.4
	s5.8,14.4,4.1,16.3c-1.4,1.6-14.2-3.9-14.2-3.9s-13.1,9.3-13.7,8.2c-1.1-2.1,1.2-15.4,1.2-15.4s-13.4-7.3-12.7-9.7
	C271.4,275.3,284.7,271.4,284.7,271.4L284.7,271.4z"/>
<path class="st16" d="M327.4,205.2c0,0-13.4,5.8-13.5,8.8c-0.2,2.9,16.3,6.3,16.3,6.3s2,15.3,5.3,15.8s9.4-13.8,9.4-13.8
	s15.7,1,16.5-1.6c0.9-2.5-10.3-12.6-10.3-12.6s6.8-13.6,4.7-15.5c-2.1-2-15.3,6.3-15.3,6.3s-10.8-11.9-13.6-10.4
	C324.7,189.6,327.4,205.2,327.4,205.2z"/>
<path class="st16" d="M155.4,206.4c0,0-10.4-13.3-12.2-12.7s-2.3,17.1-2.3,17.1s-15.6,5-15.6,6.8c0,2.4,13.5,8,13.5,8
	s0.5,16.4,2.8,17.4c2.2,0.9,12-11.1,12-11.1s17.1,3.4,18.4,2.1s-6.2-16.6-6.2-16.6s7.7-13.3,6.2-15.4S155.4,206.4,155.4,206.4z"/>
<path class="st16" d="M218.3,352c0,0,0.1-20.6,3.1-22s13.5,17.1,13.5,17.1s20-7.4,21.4-5.2c1.4,2.1-10.3,20.4-10.3,20.4
	s13.4,18.3,11.2,20.2c-2.1,2-22.2-4.2-22.2-4.2s-13,17-16.2,14.9c-3.4-2.1-1.3-22.3-1.3-22.3s-21.2-6.1-20.7-9.1
	C197.2,358.7,218.3,352,218.3,352z"/>
<path class="st17" d="M172.9,128.5c0,0-8.2-18.7-6.1-21.5c2.1-2.8,21.1,9.1,21.1,9.1s13.8-14.8,16.8-13c3.4,2-1.2,21.4-1.2,21.4
	s17.8,11.4,17.5,14.7s-21.1,7.3-21.1,7.3s-6,21.1-8.5,21.4c-2.6,0.3-13-20-13-20s-20.3,0.5-21.3-2.3
	C156.1,142.7,172.9,128.5,172.9,128.5z"/>
<path class="st17" d="M147.1,317.2c-0.2,8.8,4.8,16.4,15.2,16.7c11.4,0.3,15.4-8.8,15.3-16.6c-0.1-7.7-6.2-15.1-15.3-14.6
	C153.1,303.2,147.2,309.2,147.1,317.2z"/>
<path class="st17" d="M352.9,153.7c-5.2,0.1-9.8,3.1-9.6,10.5c0.2,6.6,5.8,9.1,10.2,8.9c4.5-0.2,8.8-2.5,9-9
	C362.7,157.9,358.7,153.6,352.9,153.7z"/>
<path class="st16" d="M431.9,101.3c-8-0.5-12.1,5.6-12.3,13c-0.1,7.4,4.6,13,12.9,12.9c8.2-0.1,11.5-7.3,11.3-13
	C443.5,105.4,438.5,101.7,431.9,101.3z"/>
<path class="st15" d="M33.3,250.6c0,0-15.9-11-17.5-9.4c-1.7,1.6,1.2,20.2,1.2,20.2S3.9,274,4.5,276.2c0.6,1.8,16.8,3,16.8,3
	s7.6,16.3,10.4,16.6c2.9,0.3,9.2-15.6,9.2-15.6s18,0.9,19-1.6C60.8,276,49.2,263,49.2,263s4.6-18.7,2.3-20.1
	C49.3,241.4,33.3,250.6,33.3,250.6z"/>
<path class="st15" d="M95.5,232.6c-0.3,3.7,3.2,6.6,7.1,6.1c3.8-0.6,4.9-3.1,5-6.6s-3.5-6.1-6.4-5.7
	C98.3,226.7,95.8,228.7,95.5,232.6z"/>
<path class="st15" d="M421,233.4c-4,0-7.4,3.1-7.1,7.8c0.3,4.5,3.8,6.7,8.1,6.6c4.3-0.2,6.8-3.9,6.8-7
	C428.8,237.6,426.8,233.5,421,233.4z"/>
<path class="st15" d="M432.7,201.9c-0.3,2.7,2,4.6,4.8,4.6c3.4,0.1,4.8-2,4.7-4.9c-0.2-2.9-2.4-4.1-4.6-4.4S433,198.6,432.7,201.9z"
	/>
<path class="st15" d="M497.7,193.1c0,2,1.4,4.6,4.7,4.5c3.4,0,4.5-2.2,4.7-4.3c0.2-2.2-1.2-4.7-4.8-4.8S497.7,191.1,497.7,193.1z"/>
<path class="st15" d="M427.9,55.2c-3.8,0-8.4,2.5-8.5,9s5.1,9.3,9.4,9.2s9-2.9,9-9.1C437.7,58.3,433.4,55.1,427.9,55.2z"/>
<path class="st15" d="M389.1,26.8c-3.7,0.1-6.3,3-6.3,6.5s2.6,6.3,6.6,6.1c4.3-0.2,5.9-3.4,6-6.1C395.6,30,392.9,26.7,389.1,26.8z"
	/>
<path class="st16" d="M138.9,348.6l-9.4,10.8l9.5,12l11.1-11.7L138.9,348.6z"/>
<path class="st16" d="M179.7,402.7c2,2.3,1.7,6.2-1.1,8.2c-2,1.4-5.1,1.2-7.1-0.9c-1.8-1.9-2-5.1,0.1-7.4
	C173.8,400.3,177.6,400.2,179.7,402.7z"/>
<path class="st16" d="M192.7,395.8c-1.8,1.7-1.4,4.2-0.3,5.7c1,1.4,4.3,2.3,6.2,0.3c0.9-1,1.6-4.3-0.1-5.9
	C196.8,394.4,194.3,394.4,192.7,395.8z"/>
<path class="st16" d="M97.9,269.1c-3.2-0.1-4.2,2.6-4.1,4.4c0.1,1.7,1.5,3.7,3.9,3.7s4-2.1,3.9-4.3
	C101.5,270.9,100.3,269.2,97.9,269.1z"/>
<path class="st16" d="M18,310c-4.8,0.3-6.1,3.2-6,7c0.1,3.6,2.4,6,6.8,6.1c3.7,0.1,6.3-2.7,6.3-6.8C25.2,312.1,22.3,309.7,18,310z"
	/>
<path class="st16" d="M101,145.8c-3.4-0.1-5.3,2.6-5.4,5.1c-0.2,3.2,2.3,5.1,5.1,5.1c3.3,0.1,4.6-2.6,4.8-4.8
	C105.6,149.2,104.6,146,101,145.8z"/>
<path class="st16" d="M217.2,52c0,2.8,1.5,4.4,4.2,4.5c2.3,0.1,4.1-1.9,4.1-4.3s-1.8-4.2-4.1-4.2S217.2,49.5,217.2,52z"/>
<path class="st18" d="M177.3,73.3c-2.6-0.2-4.7,1.7-4.8,4.5s1.6,4.5,4.5,4.5s4.6-1.4,4.7-3.7C181.8,75.5,180.2,73.5,177.3,73.3z"/>
<path class="st18" d="M188.1,48.9c-3.1,0-4.5,1.7-4.7,4.4s2,4.9,4.3,5c2.9,0.1,5.1-1.7,4.8-5C192.3,50.5,190.5,48.9,188.1,48.9z"/>
<path class="st13" d="M59.8,300.9c-0.9,3,0.9,6.6,5,6.8c4,0.2,5.8-2.4,5.8-5.9c0-2.8-2.3-5.1-5.7-5
	C62.1,296.9,60.5,298.8,59.8,300.9z"/>
<path class="st13" d="M112.3,342.7c-0.8,2.8,0.9,6,4.6,6.2s5.4-2.2,5.4-5.4c0-2.6-2.1-4.7-5.3-4.6
	C114.3,339,112.8,340.7,112.3,342.7z"/>
<path class="st13" d="M161.3,372.1c-0.6,2.2,0.7,4.7,3.6,4.9c2.9,0.1,4.2-1.7,4.2-4.3c0-2-1.7-3.7-4.1-3.6
	C162.9,369.1,161.7,370.5,161.3,372.1z"/>
<path class="st13" d="M19.3,387c-0.8,2.8,0.9,6.1,4.6,6.3c3.7,0.2,5.4-2.2,5.4-5.5c0-2.6-2.1-4.7-5.3-4.6
	C21.4,383.2,19.9,384.9,19.3,387z"/>
<path class="st13" d="M331.8,123.5c2,1.7,1.5,4.3,0.2,5.6c-1.3,1.2-3.7,1.4-5,0.2c-1.7-1.7-1.6-4.1-0.4-5.4
	C328.1,122.3,330.3,122.2,331.8,123.5z"/>
<path class="st13" d="M397.7,92.7c3.3,2.8,2.4,7,0.3,9c-2.2,2-6,2.3-8.1,0.3c-2.8-2.6-2.6-6.6-0.6-8.6
	C391.7,90.8,395.2,90.6,397.7,92.7z"/>
<path class="st13" d="M371.1,55.3c2.9,2.5,2.1,6.1,0.2,7.9c-1.9,1.8-5.3,2-7.1,0.2c-2.5-2.3-2.2-5.8-0.6-7.6
	C365.8,53.6,368.9,53.4,371.1,55.3z"/>
<path class="st13" d="M482.9,57.2c2.6,2.2,1.9,5.4,0.2,7c-1.7,1.6-4.7,1.7-6.3,0.2c-2.2-2.1-2-5.1-0.5-6.7
	C478.1,55.7,480.9,55.5,482.9,57.2z"/>
<path class="st13" d="M498.6,43.2c1.7,1.4,1.2,3.5,0.1,4.6c-1.1,1-3.1,1.1-4.1,0.1c-1.4-1.4-1.3-3.4-0.3-4.4
	C495.5,42.2,497.4,42.1,498.6,43.2z"/>
<path class="st13" d="M464.4,175.2c2.7,2.3,2,5.8,0.2,7.5s-5,1.9-6.8,0.2c-2.3-2.2-2.1-5.5-0.5-7.2
	C459.4,173.7,462.4,173.4,464.4,175.2z"/>
<path class="st13" d="M390.1,205.5c2,1.7,1.4,4.1,0.2,5.4c-1.3,1.2-3.6,1.3-4.8,0.2c-1.7-1.6-1.5-3.9-0.4-5.1
	C386.5,204.3,388.6,204.2,390.1,205.5z"/>
<path class="st0" d="z"/>
</svg>