<?xml version="1.0" encoding="utf-8"?>
<!-- Generator: Adobe Illustrator 26.3.1, SVG Export Plug-In . SVG Version: 6.00 Build 0)  -->
<svg version="1.1" id="katman_1" xmlns="http://www.w3.org/2000/svg" xmlns:xlink="http://www.w3.org/1999/xlink" x="0px" y="0px"
	 viewBox="0 0 512 512" style="enable-background:new 0 0 512 512;background-color: #1B1B29" xml:space="preserve">
<style type="text/css">
	.st0{fill-rule:evenodd;clip-rule:evenodd;fill:#1B1B29;enable-background:new    ;}
	.st1{fill:#553788;}
	.st2{fill:#744EAA;}
	.st3{fill:#292F33;}
	.st4{fill:#AA8DD8;}
	.st5{fill:#CBB7EA;}
	.st6{fill:#F5F8FA;enable-background:new    ;}
	.st7{fill:none;}
</style>
<path class="st0" d="M0,0h512v512H0V0z"/>
<path class="st1" d="M512,455.1c0,31.4-25.5,56.9-56.9,56.9H56.9C25.5,512,0,486.5,0,455.1V56.9C0,25.5,25.5,0,56.9,0h398.2
	C486.5,0,512,25.5,512,56.9V455.1z"/>
<path class="st2" d="M455.1,0H273.7c-66.7,23.6,11.4,127.9-49.8,120.4C122.1,108,114.7,207,71.1,191.1c-17-6.2-46.3-35.4-71.1-14.1
	v278.1C0,486.5,25.5,512,56.9,512H80c20.9-18.2,13.2-80,24.3-96c40.3-58.1,52.5-106.4,112.4-102.2c101.3,7.1,120.2-69,152.2-102.2
	s86.2,21.9,143.1-3V56.9C512,25.5,486.5,0,455.1,0"/>
<path class="st3" d="M512,455.1v-42.2c-11-11.9-27.3-25.4-36.7-24.2c-18.1,2.3-29,16.6-41.5,26.4c-12.4,9.8-42.4,3.9-66.4-12.1
	s-56.9-1.5-72.9,6.6c-26.7,13.5-35.5-26.8-62.2-44.6s-67,40.3-83,51s-35-16.8-46.6-24.8c-11.6-8-26.9-6.9-48.2,11.7
	c-18.3,16-25.5,12.7-54.5,22v30.2C0,486.5,25.5,512,56.9,512h398.2C486.5,512,512,486.5,512,455.1"/>
<path class="st4" d="M104.3,222.8c0,9.2-7.4,16.6-16.6,16.6c-9.2,0-16.6-7.4-16.6-16.6s7.4-16.6,16.6-16.6
	C96.9,206.2,104.3,213.7,104.3,222.8 M226.7,156.9c0,8.6-7,15.6-15.6,15.6c-8.6,0-15.6-7-15.6-15.6c0-8.6,7-15.6,15.6-15.6
	C219.7,141.3,226.7,148.3,226.7,156.9 M331.5,75.5c0,10.3-8.4,18.7-18.7,18.7c-10.3,0-18.7-8.4-18.7-18.7l0,0
	c0-10.3,8.4-18.7,18.7-18.7C323.1,56.8,331.5,65.2,331.5,75.5 M358.2,124c0,6.1-5,11.1-11.1,11.1s-11.1-5-11.1-11.1
	c0-6.1,5-11.1,11.1-11.1S358.2,117.9,358.2,124 M280.9,280.9c0,7.9-6.4,14.2-14.2,14.2c-7.8,0-14.2-6.4-14.2-14.2
	c0-7.8,6.4-14.2,14.2-14.2C274.5,266.7,280.9,273,280.9,280.9 M454.2,290.4c0,7.4-6,13.3-13.3,13.3s-13.3-6-13.3-13.3
	c0-7.3,6-13.3,13.3-13.3S454.2,283.1,454.2,290.4 M464.9,155.1c0,9.1-7.4,16.4-16.4,16.4s-16.5-7.3-16.5-16.4
	c0-9.1,7.4-16.4,16.4-16.4S464.9,146,464.9,155.1"/>
<path class="st5" d="M316.9,337.5c0.2,5.1-3.8,9.5-9,9.7c-5.1,0.2-9.5-3.8-9.7-9c0-0.2,0-0.5,0-0.7c0.2-5.1,4.5-9.2,9.7-9
	C312.8,328.7,316.7,332.6,316.9,337.5 M178.7,36.4c0,6.4-5.2,11.6-11.5,11.6c-6.4,0-11.6-5.2-11.6-11.5l0,0
	c0-6.4,5.2-11.5,11.6-11.5C173.5,24.9,178.7,30.1,178.7,36.4 M79.7,84.5c0,5.3-4.3,9.6-9.6,9.6s-9.6-4.3-9.6-9.6l0,0
	c0-5.3,4.3-9.6,9.6-9.6C75.5,74.9,79.7,79.2,79.7,84.5 M408.4,369.9c0,6.4-5.1,11.5-11.5,11.5l0,0c-6.4,0-11.5-5.2-11.5-11.5
	c0-6.4,5.2-11.5,11.5-11.5C403.3,358.3,408.4,363.5,408.4,369.9L408.4,369.9 M97.7,362.6c0,7.3-5.9,13.3-13.3,13.3
	s-13.3-5.9-13.3-13.3l0,0c0-7.3,5.9-13.3,13.3-13.3C91.7,349.3,97.7,355.3,97.7,362.6 M156.4,267.1c0,11.5-9.3,20.9-20.9,20.9
	c-11.5,0-20.9-9.3-20.9-20.9l0,0c0-11.5,9.4-20.9,20.9-20.9C147.1,246.2,156.4,255.6,156.4,267.1 M289.4,210.5
	c0,13.2-10.7,23.8-23.8,23.8s-23.8-10.7-23.8-23.8l0,0c0-13.2,10.7-23.8,23.8-23.8C278.8,186.7,289.4,197.3,289.4,210.5 M408,63.6
	c0.3,5.6-4,10.5-9.7,10.8c-5.6,0.3-10.5-4-10.8-9.7c0-0.4,0-0.7,0-1.1c0.3-5.6,5.1-10,10.8-9.7C403.6,54.1,407.7,58.3,408,63.6
	 M488,42.7c0,7.9-6.4,14.2-14.2,14.2c-7.9,0-14.2-6.4-14.2-14.2c0-7.9,6.4-14.2,14.2-14.2C481.6,28.4,488,34.8,488,42.7"/>
<path class="st6" d="M161.2,107.5c0,7-5.7,12.7-12.7,12.7s-12.7-5.7-12.7-12.7l0,0c0-7,5.7-12.7,12.7-12.7S161.2,100.5,161.2,107.5
	 M488,222.7c0,6.1-5,11.1-11.1,11.1s-11.1-5-11.1-11.1c0-6.1,5-11.1,11.1-11.1S488,216.5,488,222.7L488,222.7 M365.3,192.4
	c0,5.4-4.4,9.8-9.8,9.8s-9.8-4.4-9.8-9.8l0,0c0-5.4,4.4-9.8,9.8-9.8S365.3,187,365.3,192.4 M178.2,209.3c0,4.7-3.8,8.5-8.4,8.5
	c-4.7,0-8.5-3.8-8.5-8.4l0,0c0-4.7,3.8-8.4,8.5-8.4C174.4,200.9,178.2,204.7,178.2,209.3 M323.6,159.9c0,9.1-7.4,16.4-16.4,16.4
	s-16.4-7.4-16.4-16.4s7.2-16.5,16.3-16.5S323.6,150.8,323.6,159.9 M410.7,116c0.3,7.6-5.5,14.1-13.2,14.4
	c-7.6,0.3-14.1-5.5-14.4-13.2c0-0.4,0-0.8,0-1.3c0.3-7.6,6.8-13.5,14.4-13.2C404.6,103.2,410.3,108.9,410.7,116 M230.9,257.2
	c0,10.5-8.5,19-19,19s-19-8.5-19-19c0-10.5,8.5-19,19-19S230.9,246.7,230.9,257.2 M37.4,343.2c0,6.9-5.6,12.5-12.5,12.5
	s-12.5-5.6-12.5-12.5c0-6.9,5.6-12.5,12.5-12.5C31.9,330.6,37.5,336.3,37.4,343.2L37.4,343.2 M85.3,299.8c0,5.1-4.1,9.2-9.2,9.2
	c-5.1,0-9.2-4.1-9.2-9.2l0,0c0-5.1,4.1-9.2,9.2-9.2S85.3,294.7,85.3,299.8L85.3,299.8 M457.3,81.8c0,6.4-5.2,11.6-11.6,11.6
	c-6.4,0-11.6-5.2-11.6-11.6s5.2-11.6,11.6-11.6C452.1,70.2,457.3,75.4,457.3,81.8 M238,238"/>
<path class="st7" d="z"/>
</svg>