<?xml version="1.0" encoding="utf-8"?>
<!-- Generator: Adobe Illustrator 26.3.1, SVG Export Plug-In . SVG Version: 6.00 Build 0)  -->
<svg version="1.1" id="Layer_1" xmlns="http://www.w3.org/2000/svg" xmlns:xlink="http://www.w3.org/1999/xlink" x="0px" y="0px"
	 viewBox="0 0 512 512" style="enable-background:new 0 0 512 512;background-color: #1B1B29" xml:space="preserve">
<style type="text/css">
	.st0{fill:none;}
	.st1{fill:#263A7A;}
	.st2{fill:#121149;}
	.st3{fill:#FFAD9E;}
	.st4{fill:#FF6262;}
	.st5{fill:#FFC91B;}
	.st6{fill:#D48B07;}
	.st7{fill:#FFEDB5;}
	.st8{fill:#FDE085;}
</style>
<path class="st0" d="z"/>
<g>
	<g>
		<circle class="st1" cx="256" cy="256" r="256"/>
	</g>
	<path class="st2" d="M391,151.6l-37.8,39.2l-72-72L261,138.9l138,138c-1.7,0.9-3.3,1.8-5.1,2.6L341.4,227l-109.2,78.7l-69.5-69.5
		l-39.4,40.9l98.2,98.2l-54.7,38.3l98.1,98.1c131.8-4.6,238.3-108.8,246.5-239.7L391,151.6z"/>
	<g>
		<circle class="st3" cx="369.8" cy="170.7" r="28.4"/>
	</g>
	<g>
		<path class="st4" d="M369.8,142.2c15.7,0,28.4,12.7,28.4,28.4s-12.7,28.4-28.4,28.4V142.2z"/>
	</g>
	<g>
		<circle class="st3" cx="142.2" cy="256" r="28.4"/>
	</g>
	<g>
		<path class="st4" d="M142.2,227.6c15.7,0,28.4,12.7,28.4,28.4s-12.7,28.4-28.4,28.4V227.6z"/>
	</g>
	<g>
		
			<ellipse transform="matrix(0.1602 -0.9871 0.9871 0.1602 100.59 374.2294)" class="st3" cx="270.2" cy="128" rx="14.2" ry="14.2"/>
	</g>
	<g>
		<circle class="st3" cx="327.1" cy="412.4" r="14.2"/>
	</g>
	<g>
		<path class="st5" d="M268.3,174l19.6,39.7c0.9,1.8,2.6,3,4.5,3.3l43.8,6.4c4.9,0.7,6.9,6.8,3.3,10.2l-31.7,30.9
			c-1.4,1.4-2.1,3.4-1.7,5.3l7.5,43.6c0.8,4.9-4.3,8.6-8.7,6.3l-39.2-20.6c-1.7-0.9-3.8-0.9-5.6,0l-39.2,20.6
			c-4.4,2.3-9.5-1.4-8.7-6.3l7.5-43.6c0.3-1.9-0.3-3.9-1.7-5.3l-31.7-30.9c-3.6-3.5-1.6-9.5,3.3-10.2l43.8-6.4
			c2-0.3,3.6-1.5,4.5-3.3l19.6-39.7C259.7,169.6,266.1,169.6,268.3,174z"/>
	</g>
	<g>
		<path class="st6" d="M339.5,233.6c3.6-3.5,1.6-9.5-3.3-10.2l-43.8-6.4c-2-0.3-3.6-1.5-4.5-3.3L268.3,174c-1.1-2.3-3.3-3.4-5.5-3.3
			v127.8c1,0,2,0.2,2.9,0.7l39.2,20.6c4.4,2.3,9.5-1.4,8.7-6.3l-7.5-43.6c-0.3-1.9,0.3-3.9,1.7-5.3L339.5,233.6z"/>
	</g>
	<g>
		<circle class="st3" cx="412.4" cy="355.6" r="14.2"/>
	</g>
	<g>
		<path class="st7" d="M381.1,252.3l6.7,13.5c0.3,0.6,0.9,1,1.5,1.1l14.9,2.2c1.7,0.2,2.3,2.3,1.1,3.5l-10.8,10.5
			c-0.5,0.5-0.7,1.1-0.6,1.8l2.5,14.9c0.3,1.7-1.5,2.9-3,2.2l-13.3-7c-0.6-0.3-1.3-0.3-1.9,0l-13.3,7c-1.5,0.8-3.3-0.5-3-2.2
			l2.5-14.9c0.1-0.7-0.1-1.3-0.6-1.8l-10.8-10.5c-1.2-1.2-0.5-3.2,1.1-3.5l14.9-2.2c0.7-0.1,1.2-0.5,1.5-1.1l6.7-13.5
			C378.2,250.8,380.3,250.8,381.1,252.3z"/>
	</g>
	<g>
		<path class="st8" d="M405.3,272.6c1.2-1.2,0.5-3.2-1.1-3.5l-14.9-2.2c-0.7-0.1-1.2-0.5-1.5-1.1l-6.7-13.5
			c-0.4-0.9-1.3-1.2-2.2-1.1v43.5c0.4-0.1,0.9,0,1.3,0.2l13.3,7c1.5,0.8,3.3-0.5,3-2.2l-2.5-14.9c-0.1-0.7,0.1-1.3,0.6-1.8
			L405.3,272.6z"/>
	</g>
	<g>
		<path class="st7" d="M192.3,342.9l9.5,19.2c0.4,0.9,1.2,1.4,2.2,1.6l21.2,3.1c2.4,0.3,3.3,3.3,1.6,4.9l-15.3,14.9
			c-0.7,0.7-1,1.6-0.8,2.6l3.6,21.1c0.4,2.4-2.1,4.2-4.2,3.1l-18.9-10c-0.8-0.4-1.9-0.4-2.7,0l-18.9,10c-2.1,1.1-4.6-0.7-4.2-3.1
			l3.6-21.1c0.2-0.9-0.1-1.9-0.8-2.6l-15.3-14.9c-1.7-1.7-0.8-4.6,1.6-4.9l21.2-3.1c0.9-0.1,1.8-0.7,2.2-1.6l9.5-19.2
			C188.1,340.8,191.2,340.8,192.3,342.9z"/>
	</g>
	<g>
		<path class="st8" d="M226.7,371.7c1.7-1.7,0.8-4.6-1.6-4.9l-21.2-3.1c-0.9-0.1-1.8-0.7-2.2-1.6l-9.5-19.2c-0.5-1-1.4-1.5-2.3-1.6
			v61.7c0.4,0,0.7,0.1,1.1,0.3l18.9,10c2.1,1.1,4.6-0.7,4.2-3.1l-3.6-21.1c-0.2-0.9,0.1-1.9,0.8-2.6L226.7,371.7z"/>
	</g>
</g>
<path class="st0" d="z"/>
</svg>