<?xml version="1.0" encoding="iso-8859-1"?>
<!-- Generator: Adobe Illustrator 19.0.0, SVG Export Plug-In . SVG Version: 6.00 Build 0)  -->
<svg version="1.1" id="Layer_1" xmlns="http://www.w3.org/2000/svg" xmlns:xlink="http://www.w3.org/1999/xlink" x="0px" y="0px"
	 viewBox="0 0 511.999 511.999" style="enable-background:new 0 0 511.999 511.999;" xml:space="preserve">
<polygon style="fill:#F4B2B0;" points="256.001,201.732 310.271,162.003 303,228.866 364.54,256 303,283.136 310.271,349.997 
	256.001,310.27 201.733,349.997 209.003,283.136 147.463,256 209.003,228.866 201.733,162.003 "/>
<g>
	<path style="fill:#B3404A;" d="M310.272,363.583c-2.83,0-5.648-0.882-8.027-2.623l-46.244-33.852l-46.244,33.852
		c-4.343,3.181-10.156,3.496-14.818,0.803c-4.663-2.691-7.296-7.883-6.713-13.234l6.195-56.975l-52.44-23.122
		c-4.925-2.172-8.104-7.048-8.104-12.431c0-5.383,3.179-10.259,8.104-12.431l52.44-23.122l-6.195-56.975
		c-0.581-5.352,2.051-10.543,6.713-13.234c4.661-2.693,10.474-2.378,14.818,0.803l46.244,33.852l46.244-33.852
		c4.343-3.181,10.156-3.496,14.818-0.803c4.663,2.691,7.296,7.883,6.713,13.234l-6.195,56.975l52.44,23.122
		c4.925,2.172,8.104,7.048,8.104,12.431c0,5.383-3.179,10.259-8.104,12.431l-52.44,23.122l6.195,56.975
		c0.581,5.352-2.051,10.543-6.713,13.234C314.955,362.981,312.609,363.583,310.272,363.583z M256.001,296.684
		c2.818,0,5.635,0.875,8.025,2.623l29.407,21.527l-3.94-36.23c-0.64-5.887,2.606-11.511,8.025-13.9l33.346-14.703l-33.346-14.703
		c-5.418-2.388-8.665-8.013-8.025-13.9l3.94-36.23l-29.407,21.527c-4.778,3.498-11.272,3.498-16.049,0l-29.407-21.527l3.94,36.23
		c0.64,5.887-2.606,11.511-8.025,13.9l-33.346,14.703l33.346,14.703c5.418,2.388,8.665,8.013,8.025,13.9l-3.94,36.23l29.407-21.527
		C250.366,297.559,253.183,296.684,256.001,296.684z"/>
	<path style="fill:#B3404A;" d="M281.5,94.267l-11.912,11.274V76.763c15.154-5.555,25.997-20.125,25.997-37.18
		C295.584,17.757,277.827,0,256.001,0s-39.583,17.757-39.583,39.582c0,17.055,10.843,31.626,25.997,37.18v28.778l-11.912-11.274
		c-5.451-5.157-14.051-4.921-19.207,0.53c-5.157,5.449-4.921,14.048,0.53,19.207l34.837,32.968c2.619,2.479,5.979,3.719,9.339,3.719
		c3.36,0,6.72-1.239,9.339-3.719l34.837-32.968c5.449-5.157,5.687-13.756,0.53-19.207C295.549,89.348,286.95,89.108,281.5,94.267z
		 M256.001,27.172c6.843,0,12.411,5.568,12.411,12.41c0,6.464-4.97,11.785-11.289,12.354c-0.371-0.03-0.743-0.057-1.121-0.057
		s-0.751,0.026-1.121,0.057c-6.319-0.569-11.289-5.888-11.289-12.354C243.59,32.74,249.158,27.172,256.001,27.172z"/>
	<path style="fill:#B3404A;" d="M265.34,365.03c-0.109-0.103-0.226-0.19-0.337-0.289c-0.173-0.152-0.344-0.306-0.523-0.45
		c-0.173-0.139-0.349-0.266-0.527-0.394c-0.174-0.126-0.346-0.253-0.527-0.37c-0.192-0.125-0.387-0.239-0.583-0.353
		c-0.179-0.105-0.357-0.211-0.542-0.307c-0.202-0.106-0.408-0.201-0.614-0.296c-0.19-0.087-0.378-0.177-0.572-0.255
		c-0.208-0.084-0.418-0.158-0.63-0.231c-0.2-0.071-0.398-0.143-0.603-0.204c-0.22-0.065-0.442-0.117-0.663-0.171
		c-0.201-0.049-0.398-0.102-0.602-0.141c-0.258-0.05-0.519-0.084-0.78-0.12c-0.171-0.023-0.34-0.054-0.512-0.072
		c-0.88-0.086-1.766-0.086-2.647,0c-0.173,0.016-0.341,0.048-0.512,0.072c-0.261,0.035-0.52,0.068-0.78,0.12
		c-0.204,0.039-0.402,0.094-0.602,0.141c-0.221,0.054-0.444,0.106-0.663,0.171c-0.204,0.061-0.404,0.133-0.603,0.204
		c-0.211,0.073-0.421,0.145-0.629,0.23c-0.194,0.079-0.383,0.168-0.573,0.255c-0.206,0.095-0.412,0.19-0.614,0.296
		c-0.185,0.096-0.363,0.202-0.542,0.307c-0.196,0.114-0.391,0.228-0.583,0.353c-0.181,0.118-0.353,0.245-0.527,0.37
		c-0.178,0.129-0.355,0.257-0.527,0.394c-0.179,0.144-0.352,0.296-0.523,0.45c-0.111,0.099-0.228,0.186-0.337,0.289l-34.837,32.968
		c-5.449,5.157-5.687,13.756-0.53,19.207c5.157,5.449,13.756,5.689,19.207,0.53l11.912-11.274v28.778
		c-15.154,5.555-25.997,20.125-25.997,37.18c0,21.825,17.757,39.582,39.583,39.582s39.583-17.757,39.583-39.582
		c0-17.055-10.843-31.626-25.997-37.18v-28.778l11.912,11.274c2.628,2.486,5.985,3.719,9.336,3.719c3.603,0,7.199-1.424,9.87-4.247
		c5.157-5.449,4.921-14.048-0.53-19.207L265.34,365.03z M256.001,484.828c-6.843,0-12.411-5.568-12.411-12.41
		c0-6.464,4.97-11.785,11.289-12.354c0.371,0.03,0.743,0.057,1.121,0.057c0.378,0,0.751-0.026,1.121-0.057
		c6.319,0.569,11.289,5.888,11.289,12.354C268.412,479.262,262.844,484.828,256.001,484.828z"/>
	<path style="fill:#B3404A;" d="M346.548,196.744c-0.027,0.219-0.053,0.436-0.071,0.656c-0.016,0.221-0.023,0.442-0.03,0.662
		c-0.005,0.215-0.011,0.428-0.007,0.643c0.004,0.22,0.019,0.439,0.034,0.658c0.015,0.216,0.03,0.432,0.056,0.648
		c0.026,0.215,0.061,0.425,0.096,0.637c0.037,0.217,0.072,0.435,0.118,0.651c0.046,0.213,0.105,0.423,0.162,0.633
		c0.056,0.209,0.109,0.417,0.175,0.624c0.075,0.231,0.163,0.456,0.249,0.682c0.069,0.179,0.13,0.361,0.208,0.539
		c0.13,0.302,0.278,0.595,0.429,0.887c0.048,0.091,0.084,0.186,0.134,0.277c0.004,0.007,0.009,0.012,0.012,0.02
		c0.268,0.485,0.572,0.948,0.897,1.398c0.09,0.124,0.181,0.245,0.273,0.364c0.288,0.374,0.594,0.732,0.921,1.075
		c0.056,0.058,0.107,0.122,0.163,0.181c0.371,0.375,0.772,0.723,1.189,1.054c0.118,0.095,0.24,0.182,0.363,0.273
		c0.336,0.25,0.685,0.484,1.046,0.702c0.113,0.068,0.221,0.141,0.336,0.205c0.461,0.262,0.937,0.501,1.436,0.711
		c0.092,0.039,0.189,0.068,0.284,0.106c0.291,0.115,0.581,0.232,0.884,0.329l45.717,14.509c1.367,0.433,2.751,0.64,4.113,0.64
		c5.762,0,11.111-3.695,12.946-9.48c2.269-7.152-1.689-14.79-8.84-17.06l-15.461-4.906l25.229-13.832
		c7.065,6.042,16.15,9.531,25.747,9.531c6.669,0,13.29-1.715,19.15-4.958c19.094-10.571,26.028-34.707,15.456-53.802
		c-6.971-12.593-20.25-20.414-34.653-20.414c-6.669,0-13.291,1.715-19.15,4.958c-9.249,5.122-15.951,13.537-18.871,23.7
		c-1.644,5.724-1.977,11.616-1.039,17.324l-25.247,13.842l4.137-16.055c1.872-7.266-2.5-14.674-9.766-16.547
		c-7.273-1.875-14.674,2.501-16.546,9.766l-11.969,46.447c-0.035,0.136-0.053,0.27-0.084,0.406
		c-0.052,0.227-0.101,0.454-0.141,0.682C346.601,196.32,346.574,196.532,346.548,196.744z M433.41,147.747
		c0.916-3.186,3.016-5.824,5.917-7.43c1.867-1.034,3.882-1.557,5.987-1.557c4.524,0,8.694,2.454,10.881,6.403
		c3.314,5.986,1.14,13.553-4.846,16.868c-1.867,1.034-3.882,1.557-5.987,1.557c-4.526,0-8.694-2.454-10.881-6.404
		C432.874,154.285,432.494,150.933,433.41,147.747z"/>
	<path style="fill:#B3404A;" d="M165.458,315.223c0.026-0.216,0.053-0.431,0.069-0.648c0.016-0.224,0.022-0.447,0.027-0.671
		c0.005-0.212,0.011-0.423,0.007-0.634c-0.005-0.224-0.022-0.446-0.038-0.667c-0.015-0.212-0.03-0.425-0.054-0.637
		c-0.026-0.217-0.064-0.432-0.101-0.648c-0.037-0.215-0.071-0.428-0.117-0.641c-0.048-0.217-0.109-0.429-0.167-0.643
		c-0.056-0.205-0.107-0.412-0.173-0.615c-0.079-0.242-0.173-0.478-0.265-0.715c-0.065-0.168-0.122-0.338-0.194-0.507
		c-0.351-0.81-0.778-1.583-1.278-2.31c-0.103-0.151-0.217-0.289-0.326-0.435c-0.152-0.204-0.302-0.408-0.465-0.603
		c-0.137-0.163-0.284-0.315-0.428-0.471c-0.151-0.164-0.3-0.329-0.459-0.486c-0.155-0.151-0.315-0.292-0.477-0.435
		c-0.164-0.147-0.329-0.295-0.501-0.435c-0.164-0.133-0.336-0.255-0.505-0.38c-0.182-0.133-0.363-0.266-0.552-0.391
		c-0.174-0.116-0.353-0.22-0.533-0.326c-0.194-0.115-0.389-0.231-0.591-0.337c-0.19-0.101-0.384-0.192-0.579-0.283
		c-0.198-0.094-0.397-0.186-0.601-0.27c-0.212-0.087-0.427-0.163-0.643-0.239c-0.141-0.05-0.276-0.11-0.42-0.156l-45.717-14.509
		c-7.154-2.272-14.79,1.689-17.06,8.84c-2.27,7.152,1.689,14.79,8.84,17.06l15.632,4.962l-25.195,13.949
		c-7.093-6.15-16.264-9.702-25.952-9.702c-6.669,0-13.29,1.715-19.15,4.958c-19.094,10.571-26.028,34.707-15.456,53.802
		c6.971,12.593,20.25,20.414,34.653,20.414c6.669,0,13.291-1.715,19.15-4.958c9.249-5.122,15.951-13.537,18.871-23.7
		c1.619-5.637,1.962-11.434,1.077-17.06l25.164-13.933l-4.092,15.882c-1.872,7.266,2.5,14.674,9.766,16.547
		c1.137,0.293,2.278,0.433,3.399,0.433c6.05,0,11.567-4.07,13.147-10.199l11.969-46.447c0.037-0.145,0.057-0.289,0.09-0.435
		c0.05-0.226,0.101-0.45,0.14-0.678C165.406,315.654,165.432,315.438,165.458,315.223z M78.594,364.254
		c-0.916,3.186-3.016,5.824-5.917,7.43c-1.867,1.034-3.882,1.557-5.987,1.557c-4.524,0-8.694-2.454-10.881-6.403
		c-3.314-5.986-1.14-13.553,4.846-16.868c1.867-1.034,3.882-1.557,5.987-1.557c4.526,0,8.694,2.454,10.881,6.404
		C79.129,357.716,79.508,361.068,78.594,364.254z"/>
	<path style="fill:#B3404A;" d="M464.51,326.198c-5.86-3.244-12.48-4.958-19.15-4.958c-9.688,0-18.859,3.553-25.952,9.702
		l-25.195-13.949l15.632-4.962c7.152-2.27,11.109-9.907,8.84-17.06c-2.27-7.152-9.907-11.107-17.06-8.84l-45.717,14.509
		c-0.132,0.042-0.255,0.098-0.384,0.143c-0.232,0.082-0.465,0.163-0.693,0.258c-0.189,0.077-0.371,0.164-0.554,0.25
		c-0.211,0.098-0.42,0.196-0.625,0.304c-0.188,0.099-0.367,0.207-0.548,0.314c-0.193,0.114-0.386,0.227-0.573,0.351
		c-0.177,0.117-0.345,0.24-0.515,0.365c-0.182,0.133-0.364,0.264-0.539,0.406c-0.162,0.13-0.315,0.27-0.47,0.408
		c-0.17,0.151-0.341,0.3-0.504,0.459c-0.152,0.149-0.293,0.307-0.437,0.463c-0.151,0.163-0.303,0.321-0.447,0.492
		c-0.158,0.188-0.302,0.386-0.448,0.581c-0.114,0.152-0.234,0.298-0.342,0.455c-0.499,0.727-0.927,1.499-1.277,2.308
		c-0.072,0.167-0.129,0.337-0.194,0.507c-0.092,0.236-0.186,0.473-0.265,0.715c-0.067,0.204-0.117,0.409-0.173,0.615
		c-0.058,0.213-0.12,0.427-0.167,0.643c-0.048,0.215-0.082,0.429-0.117,0.644c-0.037,0.215-0.075,0.428-0.101,0.644
		c-0.026,0.213-0.039,0.425-0.056,0.639c-0.016,0.221-0.033,0.443-0.038,0.666c-0.005,0.212,0.001,0.423,0.007,0.634
		c0.005,0.223,0.011,0.447,0.027,0.671c0.016,0.217,0.043,0.432,0.069,0.648c0.026,0.215,0.052,0.429,0.088,0.645
		c0.039,0.228,0.09,0.452,0.14,0.678c0.033,0.145,0.053,0.291,0.09,0.435l11.969,46.447c1.58,6.129,7.097,10.199,13.147,10.199
		c1.122,0,2.263-0.14,3.399-0.433c7.266-1.872,11.638-9.281,9.766-16.546l-4.092-15.882l25.164,13.933
		c-0.884,5.626-0.542,11.423,1.077,17.06c2.918,10.161,9.622,18.578,18.871,23.7c5.858,3.243,12.479,4.958,19.148,4.958h0.001
		c14.403,0,27.68-7.821,34.651-20.414C490.538,360.905,483.605,336.769,464.51,326.198z M456.195,366.838
		c-2.187,3.951-6.356,6.403-10.88,6.403c-2.107,0-4.122-0.524-5.989-1.557c-2.901-1.606-5.001-4.246-5.917-7.43
		c-0.916-3.186-0.535-6.538,1.071-9.438c2.187-3.949,6.356-6.403,10.881-6.403c2.106,0,4.121,0.524,5.987,1.557
		C457.335,353.285,459.509,360.852,456.195,366.838z"/>
	<path style="fill:#B3404A;" d="M164.909,202.582c0.067-0.204,0.117-0.409,0.173-0.615c0.058-0.213,0.12-0.427,0.167-0.643
		c0.048-0.213,0.08-0.428,0.117-0.641c0.037-0.216,0.075-0.431,0.101-0.648c0.026-0.212,0.039-0.424,0.054-0.637
		c0.016-0.221,0.033-0.443,0.038-0.667c0.005-0.212-0.001-0.423-0.007-0.634c-0.005-0.223-0.011-0.447-0.027-0.671
		c-0.016-0.217-0.043-0.432-0.069-0.648c-0.026-0.215-0.052-0.429-0.088-0.645c-0.039-0.228-0.09-0.452-0.14-0.678
		c-0.033-0.145-0.053-0.291-0.09-0.435l-11.969-46.447c-1.872-7.266-9.279-11.639-16.547-9.766
		c-7.266,1.872-11.638,9.281-9.766,16.546l4.092,15.882l-25.164-13.933c0.884-5.626,0.542-11.423-1.077-17.06
		c-2.918-10.161-9.622-18.578-18.871-23.7c-5.858-3.244-12.48-4.958-19.15-4.958c-14.403,0-27.682,7.822-34.653,20.414
		c-10.571,19.095-3.638,43.23,15.456,53.802c5.858,3.243,12.48,4.958,19.148,4.958c0,0,0.001,0,0.003,0
		c9.688,0,18.857-3.551,25.951-9.702l25.195,13.949l-15.632,4.962c-7.152,2.27-11.109,9.907-8.84,17.06
		c1.837,5.785,7.184,9.48,12.946,9.48c1.361,0,2.746-0.206,4.113-0.64l45.717-14.509c0.292-0.092,0.572-0.206,0.853-0.318
		c0.099-0.039,0.201-0.071,0.3-0.111c0.497-0.208,0.974-0.446,1.435-0.706c0.109-0.061,0.213-0.132,0.321-0.197
		c0.364-0.22,0.715-0.454,1.053-0.704c0.122-0.091,0.245-0.179,0.364-0.274c0.417-0.331,0.821-0.678,1.193-1.053
		c0.041-0.041,0.077-0.088,0.118-0.129c0.342-0.353,0.66-0.728,0.962-1.114c0.092-0.12,0.183-0.239,0.272-0.363
		c0.587-0.807,1.09-1.671,1.486-2.587c0.072-0.167,0.129-0.337,0.194-0.507C164.737,203.06,164.832,202.824,164.909,202.582z
		 M66.644,163.589c-2.107,0-4.122-0.524-5.989-1.557c-5.986-3.315-8.16-10.882-4.846-16.868c2.187-3.949,6.357-6.403,10.881-6.403
		c2.106,0,4.121,0.524,5.987,1.557c2.901,1.606,5.001,4.246,5.917,7.43c0.916,3.186,0.535,6.538-1.071,9.438
		C75.336,161.135,71.166,163.589,66.644,163.589z"/>
</g>
<g>
</g>
<g>
</g>
<g>
</g>
<g>
</g>
<g>
</g>
<g>
</g>
<g>
</g>
<g>
</g>
<g>
</g>
<g>
</g>
<g>
</g>
<g>
</g>
<g>
</g>
<g>
</g>
<g>
</g>
</svg>
