<?xml version="1.0" encoding="iso-8859-1"?>
<!-- Generator: Adobe Illustrator 19.0.0, SVG Export Plug-In . SVG Version: 6.00 Build 0)  -->
<svg version="1.1" id="Layer_1" xmlns="http://www.w3.org/2000/svg" xmlns:xlink="http://www.w3.org/1999/xlink" x="0px" y="0px"
	 viewBox="0 0 511.892 511.892" style="enable-background:new 0 0 511.892 511.892;" xml:space="preserve">
<g>
	<path style="fill:#CFD2CF;" d="M265.535,84.471c-3.465,9.271-15.717,9.271-19.173,0l-15.744-42.167
		C223.789,24,234.257,2.487,252.525,0.21c1.125-0.137,2.267-0.21,3.419-0.21c1.161,0,2.304,0.073,3.429,0.21
		C277.64,2.487,288.1,24,281.27,42.304L265.535,84.471z"/>
	<path style="fill:#6CA1E9;" d="M316.92,194.443c-40.649,8.475-81.298,8.475-121.947,0C134.3,218.69,91.375,277.99,91.375,347.321
		c0,90.889,73.682,164.571,164.571,164.571s164.571-73.682,164.571-164.571C420.518,277.99,377.592,218.69,316.92,194.443"/>
	<g>
		<path style="fill:#4F85BF;" d="M168.631,262.956c-2.441,0-4.864-0.969-6.665-2.88c-3.456-3.685-3.273-9.472,0.402-12.928
			c9.838-9.225,20.919-16.914,32.933-22.848c4.535-2.258,10.002-0.384,12.242,4.151c2.231,4.526,0.375,10.002-4.151,12.242
			c-10.395,5.129-19.986,11.794-28.498,19.785C173.12,262.133,170.88,262.956,168.631,262.956"/>
		<path style="fill:#4F85BF;" d="M182.805,201.032L182.805,201.032c48.759,12.187,97.527,12.187,146.286,0l0,0v-54.857H182.805
			V201.032z"/>
	</g>
	<polygon style="fill:#6CA1E9;" points="201.091,146.175 310.805,146.175 310.805,118.747 201.091,118.747 	"/>
	<polygon style="fill:#E4E5E6;" points="237.662,118.747 274.234,118.747 274.234,82.175 237.662,82.175 	"/>
	<g>
		<path style="fill:#4F85BF;" d="M255.948,438.747c-5.047,0-9.143-4.096-9.143-9.143v-73.143c0-5.047,4.096-9.143,9.143-9.143
			s9.143,4.096,9.143,9.143v73.143C265.091,434.651,260.995,438.747,255.948,438.747"/>
		<path style="fill:#4F85BF;" d="M274.234,457.032c-2.341,0-4.681-0.896-6.464-2.679l-11.822-11.822l-11.822,11.822
			c-3.575,3.575-9.353,3.575-12.928,0c-3.575-3.575-3.575-9.353,0-12.928l18.286-18.286c3.575-3.575,9.353-3.575,12.928,0
			l18.286,18.286c3.575,3.575,3.575,9.353,0,12.928C278.915,456.136,276.574,457.032,274.234,457.032"/>
		<path style="fill:#4F85BF;" d="M255.948,365.604c-5.047,0-9.143-4.096-9.143-9.143v-73.143c0-5.047,4.096-9.143,9.143-9.143
			s9.143,4.096,9.143,9.143v73.143C265.091,361.508,260.995,365.604,255.948,365.604"/>
		<path style="fill:#4F85BF;" d="M255.948,292.461c-2.341,0-4.681-0.896-6.464-2.679l-18.286-18.286
			c-3.575-3.575-3.575-9.353,0-12.928c3.575-3.575,9.353-3.575,12.928,0l11.822,11.822l11.822-11.822
			c3.575-3.575,9.353-3.575,12.928,0c3.575,3.575,3.575,9.353,0,12.928l-18.286,18.286
			C260.629,291.565,258.288,292.461,255.948,292.461"/>
		<path style="fill:#4F85BF;" d="M255.948,365.604h-73.143c-5.047,0-9.143-4.096-9.143-9.143s4.096-9.143,9.143-9.143h73.143
			c5.047,0,9.143,4.096,9.143,9.143S260.995,365.604,255.948,365.604"/>
		<path style="fill:#4F85BF;" d="M164.519,383.889c-2.341,0-4.681-0.896-6.464-2.679c-3.575-3.575-3.575-9.353,0-12.928
			l11.822-11.822l-11.822-11.822c-3.575-3.575-3.575-9.353,0-12.928c3.575-3.575,9.353-3.575,12.928,0l18.286,18.286
			c3.575,3.575,3.575,9.353,0,12.928l-18.286,18.286C169.2,382.993,166.86,383.889,164.519,383.889"/>
		<path style="fill:#4F85BF;" d="M329.091,365.604h-73.143c-5.047,0-9.143-4.096-9.143-9.143s4.096-9.143,9.143-9.143h73.143
			c5.047,0,9.143,4.096,9.143,9.143S334.138,365.604,329.091,365.604"/>
		<path style="fill:#4F85BF;" d="M347.376,383.889c-2.341,0-4.681-0.896-6.464-2.679l-18.286-18.286
			c-3.575-3.575-3.575-9.353,0-12.928l18.286-18.286c3.575-3.575,9.353-3.575,12.928,0c3.575,3.575,3.575,9.353,0,12.928
			l-11.822,11.822l11.822,11.822c3.575,3.575,3.575,9.353,0,12.928C352.058,382.993,349.717,383.889,347.376,383.889"/>
		<path style="fill:#4F85BF;" d="M255.948,365.604c-2.341,0-4.681-0.896-6.464-2.679l-73.143-73.143
			c-3.575-3.575-3.575-9.353,0-12.928c3.575-3.575,9.353-3.575,12.928,0l73.143,73.143c3.575,3.575,3.575,9.353,0,12.928
			C260.629,364.708,258.288,365.604,255.948,365.604"/>
		<path style="fill:#4F85BF;" d="M219.376,329.032h-27.429c-5.047,0-9.143-4.096-9.143-9.143c0-5.047,4.096-9.143,9.143-9.143
			h18.286v-18.286c0-5.047,4.096-9.143,9.143-9.143s9.143,4.096,9.143,9.143v27.429
			C228.519,324.936,224.423,329.032,219.376,329.032"/>
		<path style="fill:#4F85BF;" d="M329.091,438.747c-2.341,0-4.681-0.896-6.464-2.679l-73.143-73.143
			c-3.575-3.575-3.575-9.353,0-12.928c3.575-3.575,9.353-3.575,12.928,0l73.143,73.143c3.575,3.575,3.575,9.353,0,12.928
			C333.772,437.851,331.431,438.747,329.091,438.747"/>
		<path style="fill:#4F85BF;" d="M292.519,429.604c-5.047,0-9.143-4.096-9.143-9.143v-27.429c0-5.047,4.096-9.143,9.143-9.143
			h27.429c5.047,0,9.143,4.096,9.143,9.143s-4.096,9.143-9.143,9.143h-18.286v18.286
			C301.662,425.508,297.566,429.604,292.519,429.604"/>
		<path style="fill:#4F85BF;" d="M255.948,365.604c-2.341,0-4.681-0.896-6.464-2.679c-3.575-3.575-3.575-9.353,0-12.928
			l73.143-73.143c3.575-3.575,9.353-3.575,12.928,0c3.575,3.575,3.575,9.353,0,12.928l-73.143,73.143
			C260.629,364.708,258.288,365.604,255.948,365.604"/>
		<path style="fill:#4F85BF;" d="M319.948,329.032h-27.429c-5.047,0-9.143-4.096-9.143-9.143v-27.429
			c0-5.047,4.096-9.143,9.143-9.143c5.047,0,9.143,4.096,9.143,9.143v18.286h18.286c5.047,0,9.143,4.096,9.143,9.143
			C329.091,324.936,324.995,329.032,319.948,329.032"/>
		<path style="fill:#4F85BF;" d="M182.805,438.747c-2.341,0-4.681-0.896-6.464-2.679c-3.575-3.575-3.575-9.353,0-12.928
			l73.143-73.143c3.575-3.575,9.353-3.575,12.928,0c3.575,3.575,3.575,9.353,0,12.928l-73.143,73.143
			C187.486,437.851,185.146,438.747,182.805,438.747"/>
		<path style="fill:#4F85BF;" d="M219.376,429.604c-5.047,0-9.143-4.096-9.143-9.143v-18.286h-18.286
			c-5.047,0-9.143-4.096-9.143-9.143s4.096-9.143,9.143-9.143h27.429c5.047,0,9.143,4.096,9.143,9.143v27.429
			C228.519,425.508,224.423,429.604,219.376,429.604"/>
	</g>
</g>
<g>
</g>
<g>
</g>
<g>
</g>
<g>
</g>
<g>
</g>
<g>
</g>
<g>
</g>
<g>
</g>
<g>
</g>
<g>
</g>
<g>
</g>
<g>
</g>
<g>
</g>
<g>
</g>
<g>
</g>
</svg>
