<?xml version="1.0" encoding="iso-8859-1"?>
<!-- Generator: Adobe Illustrator 19.0.0, SVG Export Plug-In . SVG Version: 6.00 Build 0)  -->
<svg version="1.1" id="Layer_1" xmlns="http://www.w3.org/2000/svg" xmlns:xlink="http://www.w3.org/1999/xlink" x="0px" y="0px"
	 viewBox="0 0 512.001 512.001" style="enable-background:new 0 0 512.001 512.001;" xml:space="preserve">
<g>
	<path style="fill:#A46F3E;" d="M510.182,179.882c-7.574-27.825-36.608-44.341-64.865-36.882l-123.26,33.315
		c-3.363,0.909-5.553-3.319-2.913-5.588c22.996-19.694,36.696-49.911,33.501-83.244c-4.573-47.598-44.915-85.548-92.698-87.437
		c-1.333-0.053-2.631,0.044-3.946,0.044s-2.613-0.097-3.946-0.044c-47.784,1.889-88.126,39.839-92.698,87.437
		c-3.196,33.333,10.505,63.55,33.501,83.244c2.648,2.269,0.45,6.497-2.913,5.588l-123.26-33.315
		c-28.248-7.459-57.291,9.057-64.865,36.882s9.198,56.426,37.455,63.885l96.477,30.967c12.341,3.257,18.097,17.231,11.538,28.036
		L68.246,433.049c-15.157,24.991-6.612,57.37,18.988,71.927c25.062,14.248,57.097,6.047,71.945-18.423l64.636-107.785
		c7.336-11.82,19.862-17.426,32.185-16.993c12.323-0.433,24.85,5.173,32.194,16.993l64.636,107.785
		c14.839,24.47,46.875,32.671,71.936,18.423c25.6-14.557,34.145-46.936,18.988-71.927l-79.042-130.277
		c-6.559-10.805-0.803-24.779,11.538-28.036l96.486-30.967C500.984,236.308,517.756,207.707,510.182,179.882"/>
	<g>
		<path style="fill:#84542C;" d="M256.006,158.863c-16.013,0-30.967-7.406-42.116-20.851c-3.107-3.752-2.586-9.313,1.165-12.429
			c3.761-3.116,9.322-2.578,12.438,1.165c7.724,9.322,17.849,14.46,28.513,14.46c10.664,0,20.78-5.138,28.504-14.46
			c3.116-3.743,8.66-4.281,12.438-1.165c3.752,3.107,4.273,8.678,1.165,12.429C286.973,151.457,272.019,158.863,256.006,158.863"/>
		<path style="fill:#84542C;" d="M288.54,97.071h5.544c8.219,0,14.883-6.665,14.883-14.883v-5.544
			c0-8.218-6.665-14.883-14.883-14.883h-5.544c-8.219,0-14.883,6.665-14.883,14.883v5.544
			C273.656,90.406,280.321,97.071,288.54,97.071"/>
		<path style="fill:#84542C;" d="M217.919,97.071h5.544c8.219,0,14.883-6.665,14.883-14.883v-5.544
			c0-8.218-6.665-14.883-14.883-14.883h-5.544c-8.219,0-14.883,6.665-14.883,14.883v5.544
			C203.036,90.406,209.701,97.071,217.919,97.071"/>
		<path style="fill:#84542C;" d="M273.656,312.198c0,8.095-6.665,14.389-14.883,14.389h-5.544c-8.219,0-14.883-6.294-14.883-14.389
			v-5.464c0-8.095,6.665-15.457,14.883-15.457h5.544c8.219,0,14.883,7.362,14.883,15.457V312.198z"/>
		<path style="fill:#84542C;" d="M273.656,241.578c0,8.095-6.665,14.389-14.883,14.389h-5.544c-8.219,0-14.883-6.294-14.883-14.389
			v-5.464c0-8.095,6.665-15.457,14.883-15.457h5.544c8.219,0,14.883,7.362,14.883,15.457V241.578z"/>
		<path style="fill:#84542C;" d="M510.182,179.882c-7.574-27.825-36.608-44.341-64.865-36.882L407.95,153.1
			c0.503,3.187,3.001,5.985,6.647,6.418l11.017,1.298c6.232,0.733,8.96,8.28,4.626,12.826l-6.197,6.506
			c-4.334,4.546-1.607,12.094,4.626,12.835l8.925,1.05c6.232,0.733,8.96,8.28,4.626,12.826l-6.197,6.506
			c-4.334,4.546-1.607,12.094,4.634,12.826l8.916,1.059c6.232,0.733,8.951,8.28,4.626,12.826L448,246.584
			c-1.607,1.686-2.233,3.778-2.083,5.791l26.818-8.607C500.984,236.308,517.756,207.707,510.182,179.882"/>
		<path style="fill:#84542C;" d="M1.821,179.882c7.574-27.825,36.608-44.341,64.865-36.882l37.367,10.099
			c-0.503,3.187-3.001,5.985-6.647,6.418l-11.017,1.298c-6.232,0.733-8.96,8.28-4.626,12.826l6.197,6.506
			c4.334,4.546,1.607,12.094-4.626,12.835l-8.925,1.05c-6.232,0.733-8.96,8.28-4.626,12.826l6.197,6.506
			c4.334,4.546,1.607,12.094-4.634,12.826l-8.916,1.059c-6.232,0.733-8.951,8.28-4.626,12.826l6.197,6.506
			c1.607,1.686,2.233,3.778,2.083,5.791l-26.818-8.607C11.019,236.308-5.753,207.707,1.821,179.882"/>
		<path style="fill:#84542C;" d="M430.725,411.577c-1.739,4.246-7.08,6.215-11.238,3.46l-9.242-6.126
			c-5.235-3.478-12.191,0.521-11.829,6.788l0.521,8.969c0.362,6.268-6.594,10.266-11.829,6.788l-7.477-4.961
			c-5.244-3.469-12.191,0.521-11.829,6.797l0.521,8.96c0.362,6.276-6.594,10.266-11.829,6.797l-7.486-4.97
			c-5.235-3.469-12.191,0.521-11.829,6.797l0.521,8.969c0.026,0.45-0.053,0.874-0.106,1.298l15.236,25.415
			c14.839,24.461,46.875,32.662,71.936,18.414c25.6-14.557,34.145-46.936,18.988-71.918L430.725,411.577z"/>
		<path style="fill:#84542C;" d="M174.301,459.841l0.521-8.96c0.362-6.276-6.594-10.266-11.829-6.797l-7.486,4.961
			c-5.235,3.478-12.191-0.521-11.829-6.788l0.521-8.969c0.362-6.276-6.585-10.266-11.829-6.797l-7.477,4.97
			c-5.235,3.469-12.191-0.521-11.829-6.797l0.521-8.96c0.362-6.276-6.594-10.275-11.829-6.797l-9.242,6.126
			c-4.158,2.763-9.49,0.794-11.238-3.46l-13.03,21.478c-15.157,24.991-6.612,57.37,18.988,71.918
			c25.062,14.257,57.097,6.056,71.945-18.414l15.236-25.406C174.354,460.715,174.275,460.3,174.301,459.841"/>
	</g>
</g>
<g>
</g>
<g>
</g>
<g>
</g>
<g>
</g>
<g>
</g>
<g>
</g>
<g>
</g>
<g>
</g>
<g>
</g>
<g>
</g>
<g>
</g>
<g>
</g>
<g>
</g>
<g>
</g>
<g>
</g>
</svg>
