<?xml version="1.0" encoding="utf-8"?>
<!-- Generator: Adobe Illustrator 26.3.1, SVG Export Plug-In . SVG Version: 6.00 Build 0)  -->
<svg version="1.1" id="katman_1" xmlns="http://www.w3.org/2000/svg" xmlns:xlink="http://www.w3.org/1999/xlink" x="0px" y="0px"
	 viewBox="0 0 512 512" style="enable-background:new 0 0 512 512;background-color: #1B1B29" xml:space="preserve">
<style type="text/css">
	.st0{fill:#5F65B2;}
	.st1{fill:#8280D8;}
	.st2{fill:#2B3B47;}
	.st3{fill:#C4A6FF;}
	.st4{fill:#F7F9AA;}
</style>
<path class="st0" d="M498.8,0h-487C5,0-0.7,5.6-0.7,12.5v487c0,6.9,5.6,12.5,12.5,12.5h487c6.9,0,12.5-5.6,12.5-12.5v-487
	C511.3,5.6,505.7,0,498.8,0L498.8,0z"/>
<path class="st1" d="M498.8,0H257.6c-4.1,4-8.4,7.7-12.8,11.3c-24.1,19.8-39.5,49.9-39.5,83.5c0,0.9,0,1.8,0,2.7
	c0.3,8.8-6.6,16.1-15.4,16.4c-0.3,0-0.7,0-1,0c-1,0-2.1,0-3.1,0c-26.1,0-49.9,10.2-67.5,26.9c-11.9,11.2-29.6,13.9-44.1,6.4
	c-22.4-11.5-47.9-18-74.8-18v328.6c77.8,0,142.9-54,159.9-126.6c2.9-12.2,13.7-20.7,26.3-20.7h0.2c38.9,0,72.5-22.6,88.5-55.4
	c6.4-13.3,23.8-16.6,34.8-6.8c36.5,32.8,84.8,52.8,137.7,52.8c22.6,0,44.3-3.6,64.6-10.3V12.5C511.3,5.6,505.7,0,498.8,0z"/>
<path class="st0" d="M51.5,321.8c-4.3,0-7.8-3.5-7.8-7.8c0-4.3,3.5-7.8,7.8-7.8s7.8,3.5,7.8,7.8C59.2,318.3,55.7,321.8,51.5,321.8z
	 M236.1,265.9c-10.2,0-18.4-8.3-18.4-18.4s8.3-18.4,18.4-18.4c10.2,0,18.4,8.3,18.4,18.4C254.6,257.7,246.3,265.9,236.1,265.9z
	 M312.2,146.8c-7.8,0-14.1-6.3-14.1-14.1s6.3-14.1,14.1-14.1s14.1,6.3,14.1,14.1C326.3,140.4,320,146.8,312.2,146.8z M451.9,154.8
	c-14.2,0-25.7-11.5-25.7-25.7s11.5-25.7,25.7-25.7s25.7,11.5,25.7,25.7C477.6,143.3,466.1,154.8,451.9,154.8z"/>
<path class="st2" d="M11.8,512h487c6.9,0,12.5-5.6,12.5-12.5V322.4c-19.5-8.8-43.9-3.6-57.6,15.5l-53.2,74.3
	c-13.3,18.5-39.6,21.5-56.6,6.4l-7.8-6.9c-25.6-22.6-67.5-22.6-93,0c-5.1,4.5-12.9,3.4-16.5-2.3l-26-40.4c-21.8-33.9-71.3-33.9-93,0
	L92,393.1c-11.6,18-38,18-49.6,0l-2.5-3.9c-9.4-14.6-25.2-21.3-40.5-20v130.3C-0.7,506.4,5,512,11.8,512L11.8,512z"/>
<path class="st1" d="M74.1,103.5c0,7.8-6.3,14.1-14.1,14.1s-14.1-6.3-14.1-14.1S52.2,89.4,60,89.4C67.8,89.4,74.1,95.7,74.1,103.5z
	 M363.2,316.1c-14.2,0-25.7,11.5-25.7,25.7c0,14.2,11.5,25.7,25.7,25.7c14.2,0,25.7-11.5,25.7-25.7
	C388.9,327.6,377.4,316.1,363.2,316.1z"/>
<path class="st3" d="M474.3,49.1c0,7.8-6.3,14.1-14.1,14.1S446,56.9,446,49.1S452.3,35,460.1,35S474.3,41.3,474.3,49.1z
	 M209.4,159.1c-7.8,0-14.1,6.3-14.1,14.1s6.3,14.1,14.1,14.1s14.1-6.3,14.1-14.1S217.2,159.1,209.4,159.1z M17.5,169.5
	c-7.8,0-14.1,6.3-14.1,14.1s6.3,14.1,14.1,14.1s14.1-6.3,14.1-14.1S25.3,169.5,17.5,169.5z M148.6,239.7c-4.3,0-7.8,3.5-7.8,7.8
	c0,4.3,3.5,7.8,7.8,7.8s7.8-3.5,7.8-7.8C156.4,243.2,152.9,239.7,148.6,239.7z M354.2,190c-4.3,0-7.8,3.5-7.8,7.8
	c0,4.3,3.5,7.8,7.8,7.8s7.8-3.5,7.8-7.8C362,193.5,358.5,190,354.2,190L354.2,190z M78.6,27.3c-4.3,0-7.8,3.5-7.8,7.8
	s3.5,7.8,7.8,7.8s7.8-3.5,7.8-7.8S82.9,27.3,78.6,27.3z M265.8,326.9c-8.2,0-14.8,6.6-14.8,14.8s6.6,14.8,14.8,14.8
	s14.8-6.6,14.8-14.8S274,326.9,265.8,326.9z"/>
<path class="st4" d="M81.9,199.8l5.2,10.6c0.5,1.1,1.5,1.8,2.7,2l11.7,1.7c3,0.4,4.1,4.1,2,6.1l-8.5,8.3c-0.8,0.8-1.2,2-1,3.2
	l2,11.7c0.5,2.9-2.6,5.2-5.2,3.8l-10.5-5.5c-1-0.6-2.3-0.6-3.3,0l-10.5,5.5c-2.6,1.4-5.7-0.9-5.2-3.8l2-11.7c0.2-1.2-0.2-2.4-1-3.2
	l-8.5-8.3c-2.1-2.1-1-5.7,2-6.1l11.7-1.7c1.2-0.2,2.2-0.9,2.7-2l5.2-10.6C76.7,197.1,80.5,197.1,81.9,199.8z M445.7,199.8l-5.2,10.6
	c-0.5,1.1-1.5,1.8-2.7,2L426,214c-3,0.4-4.1,4.1-2,6.1l8.5,8.3c0.8,0.8,1.2,2,1,3.2l-2,11.7c-0.5,2.9,2.6,5.2,5.2,3.8l10.5-5.5
	c1-0.6,2.3-0.6,3.3,0l10.5,5.5c2.6,1.4,5.7-0.9,5.2-3.8l-2-11.7c-0.2-1.2,0.2-2.4,1-3.2l8.5-8.3c2.1-2.1,1-5.7-2-6.1l-11.7-1.7
	c-1.2-0.2-2.2-0.9-2.7-2l-5.2-10.6C450.8,197.1,447,197.1,445.7,199.8L445.7,199.8z M377,12.2l-5.2,10.6c-0.5,1.1-1.5,1.8-2.7,2
	l-11.7,1.7c-3,0.4-4.1,4.1-2,6.1l8.5,8.3c0.8,0.8,1.2,2,1,3.2l-2,11.7c-0.5,2.9,2.6,5.2,5.2,3.8l10.5-5.5c1-0.6,2.3-0.6,3.3,0
	l10.5,5.5c2.6,1.4,5.7-0.9,5.2-3.8l-2-11.7c-0.2-1.2,0.2-2.4,1-3.2l8.5-8.3c2.1-2.1,1-5.7-2-6.1l-11.7-1.7c-1.2-0.2-2.2-0.9-2.7-2
	l-5.2-10.6C382.1,9.5,378.3,9.5,377,12.2L377,12.2z M140.9,30.7c-10.2,0-18.4,8.3-18.4,18.4s8.3,18.4,18.4,18.4
	c10.2,0,18.4-8.3,18.4-18.4S151.1,30.7,140.9,30.7z M258.1,59.9c-4.3,0-7.8,3.5-7.8,7.8c0,4.3,3.5,7.8,7.8,7.8
	c4.3,0,7.8-3.5,7.8-7.8C265.8,63.3,262.4,59.9,258.1,59.9L258.1,59.9z M309.4,293.2c-3.6,0-6.5,2.9-6.5,6.5c0,3.6,2.9,6.5,6.5,6.5
	c3.6,0,6.5-2.9,6.5-6.5C316,296.1,313,293.2,309.4,293.2L309.4,293.2z"/>
</svg>
