<?xml version="1.0" encoding="iso-8859-1"?>
<!-- Generator: Adobe Illustrator 19.0.0, SVG Export Plug-In . SVG Version: 6.00 Build 0)  -->
<svg version="1.1" id="Layer_1" xmlns="http://www.w3.org/2000/svg" xmlns:xlink="http://www.w3.org/1999/xlink" x="0px" y="0px"
	 viewBox="0 0 512 512" style="enable-background:new 0 0 512 512;background-color: #1B1B29" xml:space="preserve">
<g>
	<g>
		<circle style="fill:#263A7A;" cx="256" cy="256" r="256"/>
	</g>
	<path style="fill:#121149;" d="M390.971,151.636l-37.848,39.153l-71.983-71.983l-20.109,20.109l138.037,138.037
		c-1.657,0.931-3.337,1.815-5.06,2.62l-52.61-52.61l-109.203,78.748l-69.458-69.458l-39.412,40.913l98.211,98.211l-54.679,38.321
		l98.128,98.128c131.843-4.551,238.345-108.784,246.493-239.681L390.971,151.636z"/>
	<g>
		<circle style="fill:#FFAD9E;" cx="369.778" cy="170.667" r="28.444"/>
	</g>
	<g>
		<path style="fill:#FF6262;" d="M369.778,142.222c15.71,0,28.444,12.734,28.444,28.444s-12.734,28.444-28.444,28.444V142.222z"/>
	</g>
	<g>
		<circle style="fill:#FFAD9E;" cx="142.222" cy="256" r="28.444"/>
	</g>
	<g>
		<path style="fill:#FF6262;" d="M142.222,227.556c15.71,0,28.444,12.734,28.444,28.444s-12.734,28.444-28.444,28.444V227.556z"/>
	</g>
	<g>
		<circle style="fill:#FFAD9E;" cx="270.222" cy="128" r="14.222"/>
	</g>
	<g>
		<circle style="fill:#FFAD9E;" cx="327.111" cy="412.444" r="14.222"/>
	</g>
	<g>
		<path style="fill:#FFC91B;" d="M268.269,174.011l19.592,39.7c0.874,1.77,2.563,2.998,4.518,3.282l43.81,6.366
			c4.922,0.715,6.887,6.763,3.325,10.235l-31.701,30.901c-1.414,1.379-2.06,3.365-1.726,5.311l7.483,43.634
			c0.841,4.901-4.305,8.64-8.706,6.325l-39.186-20.601c-1.748-0.919-3.836-0.919-5.584,0l-39.184,20.601
			c-4.403,2.313-9.547-1.424-8.706-6.325l7.483-43.634c0.334-1.946-0.312-3.932-1.726-5.311l-31.701-30.901
			c-3.562-3.472-1.596-9.519,3.325-10.235l43.81-6.366c1.955-0.284,3.644-1.512,4.518-3.282l19.592-39.7
			C259.708,169.551,266.068,169.551,268.269,174.011z"/>
	</g>
	<g>
		<path style="fill:#D48B07;" d="M339.515,233.594c3.562-3.472,1.596-9.519-3.325-10.235l-43.81-6.366
			c-1.955-0.284-3.644-1.512-4.518-3.282l-19.592-39.7c-1.124-2.277-3.331-3.384-5.517-3.336v127.816
			c1.005-0.022,2.012,0.191,2.927,0.672l39.186,20.601c4.403,2.313,9.547-1.424,8.706-6.325l-7.483-43.634
			c-0.334-1.946,0.312-3.932,1.726-5.311L339.515,233.594z"/>
	</g>
	<g>
		<circle style="fill:#FFAD9E;" cx="412.444" cy="355.556" r="14.222"/>
	</g>
	<g>
		<path style="fill:#FFEDB5;" d="M381.066,252.328l6.673,13.522c0.298,0.603,0.874,1.021,1.539,1.119l14.922,2.169
			c1.676,0.243,2.346,2.303,1.133,3.486l-10.799,10.526c-0.481,0.469-0.702,1.146-0.588,1.808l2.55,14.862
			c0.286,1.67-1.465,2.943-2.965,2.155l-13.348-7.018c-0.595-0.314-1.307-0.314-1.901,0l-13.348,7.018
			c-1.5,0.788-3.251-0.484-2.965-2.155l2.55-14.862c0.114-0.664-0.107-1.339-0.588-1.808l-10.799-10.526
			c-1.214-1.183-0.543-3.243,1.133-3.486l14.922-2.169c0.665-0.097,1.241-0.515,1.539-1.119l6.673-13.522
			C378.151,250.809,380.316,250.809,381.066,252.328z"/>
	</g>
	<g>
		<path style="fill:#FDE085;" d="M405.335,272.624c1.214-1.183,0.543-3.243-1.133-3.486l-14.922-2.169
			c-0.665-0.097-1.241-0.515-1.539-1.119l-6.673-13.522c-0.433-0.876-1.334-1.231-2.165-1.095v43.53
			c0.434-0.072,0.884-0.016,1.284,0.195l13.348,7.018c1.5,0.788,3.251-0.484,2.965-2.155l-2.55-14.862
			c-0.114-0.664,0.107-1.339,0.588-1.808L405.335,272.624z"/>
	</g>
	<g>
		<path style="fill:#FFEDB5;" d="M192.255,342.949l9.466,19.18c0.422,0.855,1.238,1.448,2.182,1.586l21.166,3.075
			c2.377,0.345,3.327,3.267,1.607,4.944l-15.317,14.929c-0.683,0.665-0.995,1.626-0.834,2.565l3.615,21.082
			c0.407,2.369-2.079,4.174-4.206,3.056l-18.932-9.954c-0.845-0.445-1.853-0.445-2.698,0l-18.932,9.954
			c-2.127,1.119-4.613-0.688-4.206-3.056l3.615-21.082c0.162-0.941-0.15-1.9-0.834-2.565l-15.317-14.929
			c-1.72-1.677-0.771-4.599,1.607-4.944l21.166-3.075c0.945-0.138,1.76-0.731,2.182-1.586l9.466-19.18
			C188.119,340.795,191.191,340.795,192.255,342.949z"/>
	</g>
	<g>
		<path style="fill:#FDE085;" d="M226.676,371.736c1.72-1.677,0.771-4.599-1.607-4.944l-21.166-3.075
			c-0.945-0.138-1.76-0.731-2.182-1.586l-9.466-19.18c-0.486-0.986-1.395-1.498-2.338-1.581v61.747
			c0.374,0.034,0.745,0.121,1.086,0.302l18.932,9.954c2.127,1.119,4.613-0.688,4.206-3.056l-3.615-21.082
			c-0.162-0.94,0.15-1.9,0.834-2.565L226.676,371.736z"/>
	</g>
</g>
<g>
</g>
<g>
</g>
<g>
</g>
<g>
</g>
<g>
</g>
<g>
</g>
<g>
</g>
<g>
</g>
<g>
</g>
<g>
</g>
<g>
</g>
<g>
</g>
<g>
</g>
<g>
</g>
<g>
</g>
</svg>
