<?xml version="1.0" encoding="iso-8859-1"?>
<!-- Generator: Adobe Illustrator 19.0.0, SVG Export Plug-In . SVG Version: 6.00 Build 0)  -->
<svg version="1.1" id="Layer_1" xmlns="http://www.w3.org/2000/svg" xmlns:xlink="http://www.w3.org/1999/xlink" x="0px" y="0px"
	 viewBox="0 0 512.001 512.001" style="enable-background:new 0 0 512.001 512.001;" xml:space="preserve">
<g>
	<path style="fill:#CFD2CF;" d="M265.589,84.471c-3.465,9.271-15.717,9.271-19.173,0l-15.744-42.167
		C223.843,24,234.312,2.487,252.579,0.21c1.125-0.137,2.267-0.21,3.419-0.21l0,0c1.161,0,2.304,0.073,3.429,0.21
		c18.267,2.277,28.727,23.79,21.897,42.094L265.589,84.471z"/>
	<path style="fill:#BE3A2B;" d="M316.974,194.661c-40.649,8.475-81.298,8.475-121.947,0
		c-60.672,24.247-103.598,83.438-103.598,152.768c0,90.889,73.682,164.571,164.571,164.571s164.571-73.682,164.571-164.571
		C420.572,278.099,377.646,218.908,316.974,194.661"/>
	<g>
		<path style="fill:#9C281F;" d="M128.002,356.571c-5.047,0-9.143-4.096-9.143-9.143c0-52.617,29.321-99.721,76.507-122.917
			c4.517-2.249,10.011-0.366,12.242,4.169c2.222,4.535,0.357,10.011-4.178,12.242c-40.887,20.096-66.286,60.91-66.286,106.505
			C137.145,352.475,133.049,356.571,128.002,356.571"/>
		<path style="fill:#9C281F;" d="M182.859,201.142L182.859,201.142c48.759,12.187,97.527,12.187,146.286,0l0,0v-54.857H182.859
			V201.142z"/>
	</g>
	<polygon style="fill:#BE3A2B;" points="201.145,146.285 310.859,146.285 310.859,118.856 201.145,118.856 	"/>
	<polygon style="fill:#E4E5E6;" points="237.717,118.856 274.288,118.856 274.288,82.285 237.717,82.285 	"/>
</g>
<g>
</g>
<g>
</g>
<g>
</g>
<g>
</g>
<g>
</g>
<g>
</g>
<g>
</g>
<g>
</g>
<g>
</g>
<g>
</g>
<g>
</g>
<g>
</g>
<g>
</g>
<g>
</g>
<g>
</g>
</svg>
