<?xml version="1.0" encoding="iso-8859-1"?>
<!-- Generator: Adobe Illustrator 19.0.0, SVG Export Plug-In . SVG Version: 6.00 Build 0)  -->
<svg version="1.1" id="Layer_1" xmlns="http://www.w3.org/2000/svg" xmlns:xlink="http://www.w3.org/1999/xlink" x="0px" y="0px"
	 viewBox="0 0 512 512" style="enable-background:new 0 0 512 512;" xml:space="preserve">
<g>
	<path style="fill:#E4E5E6;" d="M256,221.867c-4.719,0-8.533-3.814-8.533-8.533V17.067c0-4.719,3.814-8.533,8.533-8.533
		c4.719,0,8.533,3.814,8.533,8.533v196.267C264.533,218.052,260.719,221.867,256,221.867"/>
	<path style="fill:#CFD2CF;" d="M273.067,17.067C273.067,7.637,265.429,0,256,0c-9.429,0-17.067,7.637-17.067,17.067
		S246.571,34.133,256,34.133C265.429,34.133,273.067,26.496,273.067,17.067"/>
	<g>
		<path style="fill:#E4E5E6;" d="M256,179.2c-2.185,0-4.369-0.836-6.033-2.5L207.3,134.033c-3.337-3.337-3.337-8.73,0-12.066
			s8.73-3.337,12.066,0L256,158.601l36.634-36.634c3.337-3.337,8.73-3.337,12.066,0c3.337,3.337,3.337,8.73,0,12.066L262.033,176.7
			C260.369,178.364,258.185,179.2,256,179.2"/>
		<path style="fill:#E4E5E6;" d="M256,85.333c-2.185,0-4.369-0.836-6.033-2.5L232.9,65.766c-3.337-3.337-3.337-8.73,0-12.066
			c3.337-3.337,8.73-3.337,12.066,0L256,64.734L267.034,53.7c3.337-3.337,8.73-3.337,12.066,0c3.337,3.337,3.337,8.73,0,12.066
			l-17.067,17.067C260.369,84.497,258.185,85.333,256,85.333"/>
		<path style="fill:#E4E5E6;" d="M256,128c-2.185,0-4.369-0.836-6.033-2.5l-25.6-25.6c-3.337-3.337-3.337-8.73,0-12.066
			c3.337-3.337,8.73-3.337,12.066,0L256,107.401l19.567-19.567c3.337-3.337,8.73-3.337,12.066,0c3.337,3.337,3.337,8.73,0,12.066
			l-25.6,25.6C260.369,127.164,258.185,128,256,128"/>
		<path style="fill:#E4E5E6;" d="M224.367,249.967c-2.185,0-4.369-0.836-6.033-2.5L79.3,108.433c-3.337-3.337-3.337-8.73,0-12.066
			c3.337-3.337,8.73-3.337,12.066,0L230.4,235.401c3.337,3.337,3.337,8.73,0,12.066
			C228.736,249.131,226.551,249.967,224.367,249.967"/>
	</g>
	<path style="fill:#CFD2CF;" d="M102.4,102.4c0-9.429-7.637-17.067-17.067-17.067S68.267,92.971,68.267,102.4
		s7.637,17.067,17.067,17.067S102.4,111.829,102.4,102.4"/>
	<g>
		<path style="fill:#E4E5E6;" d="M187.733,213.333h-60.339c-4.719,0-8.533-3.814-8.533-8.533c0-4.719,3.814-8.533,8.533-8.533H179.2
			v-51.806c0-4.719,3.814-8.533,8.533-8.533c4.719,0,8.533,3.814,8.533,8.533V204.8
			C196.267,209.519,192.452,213.333,187.733,213.333"/>
		<path style="fill:#E4E5E6;" d="M119.467,145.067H95.334c-4.719,0-8.533-3.814-8.533-8.533S90.615,128,95.334,128h15.599v-15.599
			c0-4.719,3.814-8.533,8.533-8.533c4.719,0,8.533,3.814,8.533,8.533v24.132C128,141.252,124.186,145.067,119.467,145.067"/>
		<path style="fill:#E4E5E6;" d="M153.6,179.2h-36.198c-4.719,0-8.533-3.814-8.533-8.533c0-4.719,3.814-8.533,8.533-8.533h27.665
			v-27.665c0-4.719,3.814-8.533,8.533-8.533s8.533,3.814,8.533,8.533v36.198C162.133,175.386,158.319,179.2,153.6,179.2"/>
		<path style="fill:#E4E5E6;" d="M287.633,249.967c-2.185,0-4.369-0.836-6.033-2.5c-3.337-3.337-3.337-8.73,0-12.066L420.634,96.367
			c3.337-3.337,8.73-3.337,12.066,0c3.337,3.337,3.337,8.73,0,12.066L293.666,247.467
			C292.002,249.131,289.818,249.967,287.633,249.967"/>
	</g>
	<path style="fill:#CFD2CF;" d="M426.667,119.467c9.429,0,17.067-7.637,17.067-17.067s-7.637-17.067-17.067-17.067
		S409.6,92.971,409.6,102.4S417.237,119.467,426.667,119.467"/>
	<g>
		<path style="fill:#E4E5E6;" d="M384.608,213.333h-60.339c-4.719,0-8.533-3.814-8.533-8.533v-60.339
			c0-4.719,3.814-8.533,8.533-8.533c4.71,0,8.533,3.814,8.533,8.533v51.806h51.806c4.719,0,8.533,3.814,8.533,8.533
			C393.142,209.519,389.327,213.333,384.608,213.333"/>
		<path style="fill:#E4E5E6;" d="M416.666,145.067h-24.132c-4.719,0-8.533-3.814-8.533-8.533v-24.132
			c0-4.719,3.814-8.533,8.533-8.533s8.533,3.814,8.533,8.533V128h15.599c4.719,0,8.533,3.814,8.533,8.533
			S421.385,145.067,416.666,145.067"/>
		<path style="fill:#E4E5E6;" d="M394.6,179.2h-36.198c-4.719,0-8.533-3.814-8.533-8.533v-36.198c0-4.719,3.814-8.533,8.533-8.533
			c4.719,0,8.533,3.814,8.533,8.533v27.665H394.6c4.719,0,8.533,3.814,8.533,8.533C403.133,175.386,399.319,179.2,394.6,179.2"/>
		<path style="fill:#E4E5E6;" d="M426.667,418.133c-2.185,0-4.369-0.836-6.033-2.5l-156.1-156.1c-3.337-3.337-3.337-8.73,0-12.066
			c3.337-3.337,8.73-3.337,12.066,0l156.1,156.1c3.337,3.337,3.337,8.73,0,12.066C431.036,417.297,428.851,418.133,426.667,418.133"
			/>
	</g>
	<path style="fill:#CFD2CF;" d="M409.6,409.6c0,9.429,7.637,17.067,17.067,17.067s17.067-7.637,17.067-17.067
		c0-9.429-7.637-17.067-17.067-17.067S409.6,400.171,409.6,409.6"/>
	<g>
		<path style="fill:#E4E5E6;" d="M324.267,375.467c-4.719,0-8.533-3.814-8.533-8.533V307.2c0-4.719,3.814-8.533,8.533-8.533H384
			c4.719,0,8.533,3.814,8.533,8.533c0,4.719-3.814,8.533-8.533,8.533h-51.2v51.2C332.8,371.652,328.986,375.467,324.267,375.467"/>
		<path style="fill:#E4E5E6;" d="M392.533,409.6c-4.719,0-8.533-3.814-8.533-8.533v-25.6c0-4.719,3.814-8.533,8.533-8.533h25.6
			c4.719,0,8.533,3.814,8.533,8.533c0,4.719-3.814,8.533-8.533,8.533h-17.067v17.067C401.067,405.786,397.252,409.6,392.533,409.6"
			/>
		<path style="fill:#E4E5E6;" d="M358.4,384c-4.719,0-8.533-3.814-8.533-8.533v-34.133c0-4.719,3.814-8.533,8.533-8.533h34.133
			c4.719,0,8.533,3.814,8.533,8.533c0,4.719-3.814,8.533-8.533,8.533h-25.6v25.6C366.933,380.186,363.119,384,358.4,384"/>
		<path style="fill:#E4E5E6;" d="M85.333,418.133c-2.185,0-4.369-0.836-6.033-2.5c-3.337-3.337-3.337-8.73,0-12.066l139.034-139.034
			c3.337-3.337,8.73-3.337,12.066,0c3.337,3.337,3.337,8.73,0,12.066L91.366,415.633C89.702,417.297,87.518,418.133,85.333,418.133"
			/>
	</g>
	<path style="fill:#CFD2CF;" d="M85.333,392.533c-9.429,0-17.067,7.637-17.067,17.067c0,9.429,7.637,17.067,17.067,17.067
		S102.4,419.029,102.4,409.6C102.4,400.171,94.763,392.533,85.333,392.533"/>
	<g>
		<path style="fill:#E4E5E6;" d="M187.733,375.467c-4.719,0-8.533-3.814-8.533-8.533v-51.2H128c-4.719,0-8.533-3.814-8.533-8.533
			c0-4.719,3.814-8.533,8.533-8.533h59.733c4.719,0,8.533,3.814,8.533,8.533v59.733
			C196.267,371.652,192.452,375.467,187.733,375.467"/>
		<path style="fill:#E4E5E6;" d="M119.467,409.6c-4.719,0-8.533-3.814-8.533-8.533V384H93.867c-4.719,0-8.533-3.814-8.533-8.533
			c0-4.719,3.814-8.533,8.533-8.533h25.6c4.719,0,8.533,3.814,8.533,8.533v25.6C128,405.786,124.186,409.6,119.467,409.6"/>
		<path style="fill:#E4E5E6;" d="M153.6,384c-4.719,0-8.533-3.814-8.533-8.533v-25.6h-25.6c-4.719,0-8.533-3.814-8.533-8.533
			c0-4.719,3.814-8.533,8.533-8.533H153.6c4.719,0,8.533,3.814,8.533,8.533v34.133C162.133,380.186,158.319,384,153.6,384"/>
		<path style="fill:#E4E5E6;" d="M256,503.467c-4.719,0-8.533-3.814-8.533-8.533V298.667c0-4.719,3.814-8.533,8.533-8.533
			c4.719,0,8.533,3.814,8.533,8.533v196.267C264.533,499.652,260.719,503.467,256,503.467"/>
	</g>
	<path style="fill:#CFD2CF;" d="M238.933,494.933c0,9.429,7.637,17.067,17.067,17.067c9.429,0,17.067-7.637,17.067-17.067
		c0-9.429-7.637-17.067-17.067-17.067C246.571,477.867,238.933,485.504,238.933,494.933"/>
	<g>
		<path style="fill:#E4E5E6;" d="M298.667,392.533c-2.185,0-4.369-0.836-6.033-2.5L256,353.4l-36.634,36.634
			c-3.337,3.337-8.73,3.337-12.066,0c-3.337-3.337-3.337-8.73,0-12.066l42.667-42.667c3.337-3.337,8.73-3.337,12.066,0
			l42.667,42.667c3.337,3.337,3.337,8.73,0,12.066C303.036,391.697,300.851,392.533,298.667,392.533"/>
		<path style="fill:#E4E5E6;" d="M273.067,460.8c-2.185,0-4.369-0.836-6.033-2.5L256,447.266L244.966,458.3
			c-3.337,3.337-8.73,3.337-12.066,0c-3.337-3.337-3.337-8.73,0-12.066l17.067-17.067c3.337-3.337,8.73-3.337,12.066,0
			l17.067,17.067c3.337,3.337,3.337,8.73,0,12.066C277.436,459.964,275.251,460.8,273.067,460.8"/>
		<path style="fill:#E4E5E6;" d="M281.6,426.667c-2.185,0-4.369-0.836-6.033-2.5L256,404.599l-19.567,19.567
			c-3.337,3.337-8.73,3.337-12.066,0c-3.337-3.337-3.337-8.73,0-12.066l25.6-25.6c3.337-3.337,8.73-3.337,12.066,0l25.6,25.6
			c3.337,3.337,3.337,8.73,0,12.066C285.969,425.83,283.785,426.667,281.6,426.667"/>
		<path style="fill:#E4E5E6;" d="M494.933,264.533h-204.8c-4.719,0-8.533-3.814-8.533-8.533c0-4.719,3.814-8.533,8.533-8.533h204.8
			c4.719,0,8.533,3.814,8.533,8.533C503.467,260.719,499.652,264.533,494.933,264.533"/>
	</g>
	<path style="fill:#CFD2CF;" d="M494.933,273.067c9.429,0,17.067-7.637,17.067-17.067c0-9.429-7.637-17.067-17.067-17.067
		c-9.429,0-17.067,7.637-17.067,17.067C477.867,265.429,485.504,273.067,494.933,273.067"/>
	<g>
		<path style="fill:#E4E5E6;" d="M366.933,290.133c-2.185,0-4.369-0.836-6.033-2.5l-25.6-25.6c-3.337-3.337-3.337-8.73,0-12.066
			l25.6-25.6c3.337-3.337,8.73-3.337,12.066,0s3.337,8.73,0,12.066L353.4,256l19.567,19.567c3.337,3.337,3.337,8.73,0,12.066
			C371.302,289.297,369.118,290.133,366.933,290.133"/>
		<path style="fill:#E4E5E6;" d="M452.267,281.6c-2.185,0-4.369-0.836-6.033-2.5l-17.067-17.067c-3.337-3.337-3.337-8.73,0-12.066
			l17.067-17.067c3.337-3.337,8.73-3.337,12.066,0c3.337,3.337,3.337,8.73,0,12.066L447.266,256l11.034,11.034
			c3.337,3.337,3.337,8.73,0,12.066C456.636,280.764,454.451,281.6,452.267,281.6"/>
		<path style="fill:#E4E5E6;" d="M418.133,290.133c-2.185,0-4.369-0.836-6.033-2.5l-25.6-25.6c-3.337-3.337-3.337-8.73,0-12.066
			l25.6-25.6c3.337-3.337,8.73-3.337,12.066,0c3.337,3.337,3.337,8.73,0,12.066L404.599,256l19.567,19.567
			c3.337,3.337,3.337,8.73,0,12.066C422.502,289.297,420.318,290.133,418.133,290.133"/>
		<path style="fill:#E4E5E6;" d="M213.333,264.533H17.067c-4.719,0-8.533-3.814-8.533-8.533c0-4.719,3.814-8.533,8.533-8.533
			h196.267c4.719,0,8.533,3.814,8.533,8.533C221.867,260.719,218.052,264.533,213.333,264.533"/>
	</g>
	<path style="fill:#CFD2CF;" d="M17.067,238.933C7.637,238.933,0,246.571,0,256c0,9.429,7.637,17.067,17.067,17.067
		S34.133,265.429,34.133,256C34.133,246.571,26.496,238.933,17.067,238.933"/>
	<g>
		<path style="fill:#E4E5E6;" d="M145.067,290.133c-2.185,0-4.369-0.836-6.033-2.5c-3.337-3.337-3.337-8.73,0-12.066L158.601,256
			l-19.567-19.567c-3.337-3.337-3.337-8.73,0-12.066c3.337-3.337,8.73-3.337,12.066,0l25.6,25.6c3.337,3.337,3.337,8.73,0,12.066
			l-25.6,25.6C149.436,289.297,147.251,290.133,145.067,290.133"/>
		<path style="fill:#E4E5E6;" d="M59.733,281.6c-2.185,0-4.369-0.836-6.033-2.5c-3.337-3.337-3.337-8.73,0-12.066L64.734,256
			L53.7,244.966c-3.337-3.337-3.337-8.73,0-12.066c3.337-3.337,8.73-3.337,12.066,0l17.067,17.067c3.337,3.337,3.337,8.73,0,12.066
			L65.766,279.1C64.102,280.764,61.918,281.6,59.733,281.6"/>
		<path style="fill:#E4E5E6;" d="M93.867,290.133c-2.185,0-4.369-0.836-6.033-2.5c-3.337-3.337-3.337-8.73,0-12.066L107.401,256
			l-19.567-19.567c-3.337-3.337-3.337-8.73,0-12.066c3.337-3.337,8.73-3.337,12.066,0l25.6,25.6c3.337,3.337,3.337,8.73,0,12.066
			l-25.6,25.6C98.236,289.297,96.051,290.133,93.867,290.133"/>
	</g>
	<polygon style="fill:#CFD2CF;" points="298.667,230.4 298.667,281.6 256,307.2 213.333,281.6 213.333,230.4 256,204.8 	"/>
</g>
<g>
</g>
<g>
</g>
<g>
</g>
<g>
</g>
<g>
</g>
<g>
</g>
<g>
</g>
<g>
</g>
<g>
</g>
<g>
</g>
<g>
</g>
<g>
</g>
<g>
</g>
<g>
</g>
<g>
</g>
</svg>
