<?xml version="1.0" encoding="utf-8"?>
<!-- Generator: Adobe Illustrator 26.3.1, SVG Export Plug-In . SVG Version: 6.00 Build 0)  -->
<svg version="1.1" xmlns="http://www.w3.org/2000/svg" xmlns:xlink="http://www.w3.org/1999/xlink" x="0px" y="0px"
	 viewBox="0 0 1122 1122" style="enable-background:new 0 0 1122 1122;" xml:space="preserve">
<style type="text/css">
	.st0{fill:#FFFFFF;}
	.st1{fill:#FED100;}
	.st2{fill:#FFDF5A;}
	.st3{fill:#FCC200;}
	.st4{fill:#E2A700;}
</style>
<g id="BG">
	<rect class="st0" width="1122" height="1122"/>
	<g id="Layer_2">
	</g>
</g>
<g id="Icon">
	<g>
		<g>
			<g>
				<path class="st1" d="M327.98,726.01c3.94-8.48,6.99-17.14,9.21-25.88C269.94,659.36,225,585.47,225,501.08
					c0-128.46,104.14-232.6,232.6-232.6c128.46,0,232.6,104.14,232.6,232.6s-104.14,232.6-232.6,232.6
					c-17.55,0-34.63-1.96-51.07-5.64c-30.29,37.73-77.31,57.87-124.9,54.5C300.99,768.39,317.15,749.29,327.98,726.01z"/>
			</g>
			<g>
				<g>
					<path class="st2" d="M266.44,523.83c0-113.44,91.96-205.41,205.41-205.41c66.31,0,125.27,31.43,162.82,80.19
						c-35.47-61.58-101.95-103.03-178.11-103.03c-113.44,0-205.41,91.96-205.41,205.41c0,47.13,15.89,90.55,42.58,125.21
						C276.37,596.07,266.44,561.11,266.44,523.83z"/>
				</g>
			</g>
			<g>
				<path class="st3" d="M690.09,493.75c-0.01-0.15-0.01-0.29-0.02-0.43c-2.75-80.33-46.31-150.29-110.59-189.83
					c23.13,36.1,36.54,79.03,36.54,125.09c0,128.26-103.97,232.23-232.23,232.23c-44.54,0-86.15-12.55-121.5-34.29
					c18.96,29.59,44.45,54.58,74.43,72.98c-0.06,0.08-0.11,0.17-0.17,0.25c0.22,0.13,0.42,0.27,0.64,0.4
					c-2.22,8.74-5.27,17.4-9.21,25.88c-10.83,23.28-26.98,42.38-46.34,56.54c47.59,3.37,94.61-16.77,124.9-54.5
					c0.12,0.03,0.23,0.05,0.35,0.07c-0.01-0.05-0.02-0.09-0.03-0.14c16.45,3.7,33.56,5.66,51.12,5.66
					c45.01,0,89.53-13.3,127.15-38.01c33.18-21.79,60.59-52.08,78.92-87.3c14.42-27.69,23.1-58.23,25.48-89.36
					C690.16,510.84,690.36,502.12,690.09,493.75z"/>
			</g>
		</g>
		<g>
			<g>
				<path class="st3" d="M794.02,796.62c-3.94-8.48-6.99-17.14-9.21-25.88C852.06,729.97,897,656.08,897,571.69
					c0-128.46-104.14-232.6-232.6-232.6c-128.46,0-232.6,104.14-232.6,232.6s104.14,232.6,232.6,232.6
					c17.55,0,34.63-1.96,51.07-5.64c30.29,37.73,77.31,57.87,124.9,54.5C821.01,839,804.85,819.9,794.02,796.62z"/>
			</g>
			<g>
				<path class="st4" d="M794.02,796.62c-3.92-8.43-6.96-17.05-9.18-25.74C852.07,730.19,897,656.38,897,572.06
					c0-83.71-44.3-157.07-110.73-197.93c23.13,36.1,36.54,79.03,36.54,125.09c0,128.26-103.97,232.23-232.23,232.23
					c-44.54,0-86.15-12.55-121.5-34.29c41.27,64.43,113.5,107.14,195.69,107.14c17.43,0,34.41-1.94,50.74-5.58
					c30.29,37.69,77.29,57.81,124.85,54.44C821.01,839,804.85,819.9,794.02,796.62z"/>
			</g>
			<g>
				<g>
					<path class="st2" d="M473.23,594.48c0-113.44,91.96-205.41,205.41-205.41c66.31,0,125.27,31.43,162.82,80.19
						c-35.47-61.58-101.95-103.03-178.11-103.03c-113.44,0-205.41,91.96-205.41,205.41c0,47.13,15.89,90.55,42.58,125.21
						C483.16,666.72,473.23,631.76,473.23,594.48z"/>
				</g>
			</g>
		</g>
		<g>
			<circle class="st0" cx="578.79" cy="577.04" r="21.84"/>
		</g>
		<g>
			<circle class="st0" cx="664.4" cy="577.04" r="21.84"/>
		</g>
		<g>
			<circle class="st0" cx="747.91" cy="577.04" r="21.84"/>
		</g>
	</g>
</g>
</svg>
