<?xml version="1.0" encoding="utf-8"?>
<!-- Generator: Adobe Illustrator 26.3.1, SVG Export Plug-In . SVG Version: 6.00 Build 0)  -->
<svg version="1.1" id="katman_1" xmlns="http://www.w3.org/2000/svg" xmlns:xlink="http://www.w3.org/1999/xlink" x="0px" y="0px"
	 viewBox="0 0 512 512" style="enable-background:new 0 0 512 512;background-color: #FFFFFF" xml:space="preserve">
<style type="text/css">
	.st0{fill:url(#SVGID_1_);}
	.st1{fill:#303030;}
	.st2{fill:url(#SVGID_00000142142261390009611940000014042773055476435381_);}
	.st3{fill:url(#SVGID_00000162353407142305893240000003143055619706061443_);}
	.st4{fill:url(#SVGID_00000056416087122946946450000006339228065640515485_);}
	.st5{fill:url(#SVGID_00000122699462563872749770000005987588816363220611_);}
	.st6{fill:#0A67A8;}
	.st7{fill:url(#SVGID_00000111149070772084083910000002283154517199959698_);}
	.st8{fill:url(#SVGID_00000168821566832644297530000016491067633519767445_);}
	.st9{fill:url(#SVGID_00000048496030897420053070000016001695254977488560_);}
	.st10{fill:url(#SVGID_00000008842131279183386300000008168221931980001430_);}
	.st11{fill:url(#SVGID_00000045608595560833174030000009832739184022449841_);}
	.st12{fill:#FFFFFF;}
	.st13{fill:#FFD717;}
	.st14{fill:#FEE262;}
	.st15{fill:#FFF7B3;}
	.st16{fill:#FFC6B2;}
	.st17{fill:#FEE066;}
</style>
<radialGradient id="SVGID_1_" cx="-1083.8458" cy="-56.8985" r="148.696" gradientTransform="matrix(4.2547 0 0 -4.2546 4992.626 403.3947)" gradientUnits="userSpaceOnUse">
	<stop  offset="0.334" style="stop-color:#3049B4"/>
	<stop  offset="0.525" style="stop-color:#2D46AF"/>
	<stop  offset="0.737" style="stop-color:#263EA2"/>
	<stop  offset="0.958" style="stop-color:#1A308C"/>
	<stop  offset="1" style="stop-color:#172D87"/>
</radialGradient>
<path class="st0" d="M480,511.2H32c-17.7,0-32-14.3-32-32v-448c0-17.7,14.3-32,32-32h448c17.7,0,32,14.3,32,32v448
	C512.1,496.9,497.7,511.2,480,511.2z"/>
<path class="st1" d="M0,441.1v38.1c0,17.7,14.3,32,32,32h448c17.7,0,32-14.3,32-32V399c0,0-36.3-23.2-57.8-34.8
	c-21.4-11.6-48.9-19-59.5-18.3c-10.6,0.7-44.8,20.8-64,36.8c-19.2,16-55.5,49.9-55.5,49.9s-35.1-12.5-51-12.8
	c-23-0.4-66.4,25.7-66.4,25.7s-65.9-34-82.3-35.1S0,441.1,0,441.1z"/>
<radialGradient id="SVGID_00000065046459412696548330000000270533191829216170_" cx="-1174.2988" cy="130.9704" r="137.842" gradientTransform="matrix(4.2547 0 0 -4.2546 4992.626 403.3947)" gradientUnits="userSpaceOnUse">
	<stop  offset="0.756" style="stop-color:#9079F1"/>
	<stop  offset="1" style="stop-color:#6366D6"/>
</radialGradient>
<path style="fill:url(#SVGID_00000065046459412696548330000000270533191829216170_);" d="M0,433.5c0,0,22-10.9,35-19.8
	c13-8.8,33.9-24.5,38-25.5c4.2-1,50.5-1.6,91.1-4.2s63.5-4.2,71.3-6.8s57.3-39.6,60.4-42.2s16.1-18.8,25.5-27.6
	c9.4-8.8,26-27.1,35.9-38c9.9-10.9,59.9-96.9,68.2-103.6c8.3-6.8,86.4-31.5,86.4-31.5V51.5c0,0-52,38.3-55.7,38.3
	s-49.5-9.4-67.2-7.8c-17.7,1.6-26.5,3.1-26.5,3.1s-48.7,33.8-52.3,39c-3.6,5.2-51.6,109.9-51.6,109.9l-97.9,15.1
	c0,0-44.8-2.1-53.1,2.1s-40.6,29.7-45.3,36c-4.7,6.3-27.1,41.1-30.2,46.9c-3.1,5.7-10.4,20.8-10.4,20.8L0.2,376.5L0,433.5L0,433.5z"
	/>
<radialGradient id="SVGID_00000005248238251960665030000011031332325997392053_" cx="-1086.3147" cy="97.6916" r="52.806" gradientTransform="matrix(4.2547 0 0 -4.2546 4992.626 403.3947)" gradientUnits="userSpaceOnUse">
	<stop  offset="0.388" style="stop-color:#6D66D7"/>
	<stop  offset="0.936" style="stop-color:#6D66D7;stop-opacity:0"/>
</radialGradient>
<path style="fill:url(#SVGID_00000005248238251960665030000011031332325997392053_);" d="M0,433.5c0,0,22-10.9,35-19.8
	c13-8.8,33.9-24.5,38-25.5c4.2-1,50.5-1.6,91.1-4.2s63.5-4.2,71.3-6.8s57.3-39.6,60.4-42.2s16.1-18.8,25.5-27.6
	c9.4-8.8,26-27.1,35.9-38c9.9-10.9,59.9-96.9,68.2-103.6c8.3-6.8,86.4-31.5,86.4-31.5V51.5c0,0-52,38.3-55.7,38.3
	s-51.4-7.7-67.2-7.8c-15.8-0.1-20.1,0.9-26.5,3.1c-6.5,2.3-49,33.9-52.6,39.1c-3.6,5.2-51.3,109.8-51.3,109.8l-97.9,15.1
	c0,0-44.8-2.1-53.1,2.1s-40.6,29.7-45.3,36c-4.7,6.3-27.1,41.1-30.2,46.9c-3.1,5.7-10.4,20.8-10.4,20.8L0.2,376.5L0,433.5L0,433.5z"
	/>
<radialGradient id="SVGID_00000026138659859088097430000001803710716743796153_" cx="-1044.6089" cy="70.4845" r="29.462" gradientTransform="matrix(4.2547 0 0 -4.2546 4992.626 403.3947)" gradientUnits="userSpaceOnUse">
	<stop  offset="0" style="stop-color:#273E9B"/>
	<stop  offset="0.861" style="stop-color:#273E9B;stop-opacity:0"/>
</radialGradient>
<path style="fill:url(#SVGID_00000026138659859088097430000001803710716743796153_);" d="M425.6,165.8c8.3-6.8,86.4-31.5,86.4-31.5
	V51.5c0,0-52,38.3-55.7,38.3c0,0-37.6,0-40.9,31.3S425.6,165.8,425.6,165.8z"/>
<radialGradient id="SVGID_00000173852976207333646380000007567476835959404707_" cx="-1179.8877" cy="-17.5956" r="30.417" gradientTransform="matrix(4.2547 0 0 -4.2546 4992.626 403.3947)" gradientUnits="userSpaceOnUse">
	<stop  offset="0.2" style="stop-color:#273E9B"/>
	<stop  offset="1" style="stop-color:#273E9B;stop-opacity:0"/>
</radialGradient>
<path style="fill:url(#SVGID_00000173852976207333646380000007567476835959404707_);" d="M21.6,354.8L0.2,376.4v57.1
	c0,0,22-10.9,35-19.8c13-8.8,33.9-24.5,38-25.5l39.7-2.3c0,0-18.5-43.6-32.9-50.5C39.9,316.2,21.6,354.8,21.6,354.8z"/>
<path class="st6" d="M479.5,115c2,5,32.5,0.3,32.5,0.3V73.8c0,0-10.3,6.8-19,16.6C484.7,99.6,476.5,107.6,479.5,115z"/>
<radialGradient id="SVGID_00000183940053560265896180000000165395489762742684_" cx="-1108.4574" cy="1180.9812" r="28.335" gradientTransform="matrix(2.3325 3.5586 6.1583 -4.0359 -4365.2139 8824.4404)" gradientUnits="userSpaceOnUse">
	<stop  offset="0.208" style="stop-color:#6D66D7"/>
	<stop  offset="0.35" style="stop-color:#6066D1"/>
	<stop  offset="0.616" style="stop-color:#3D66C0"/>
	<stop  offset="0.943" style="stop-color:#0A67A8"/>
</radialGradient>
<path style="fill:url(#SVGID_00000183940053560265896180000000165395489762742684_);" d="M453.5,124.1c1,2.9-29.4,16.8-38.8,20.9
	c-9.4,4-16.8,7.4-20.2,10.8s-9.4,15.2-13.8,30.7c-4.4,15.5-6.4,27.7-9.8,31.4c-3.4,3.7-19.9,8.4-22.6,10.1s-17.5,26.3-23.3,34.4
	c-5.7,8.1-31.7,29-41.5,35.7c-9.8,6.7-43.5,31-50.9,21.2c-7.4-9.8,11.8-37.4,14.5-40.8c2.7-3.4,19.6-13.1,19.6-13.1
	s10.5-54.6,14.2-61.1c3.7-6.4,15.2-8.4,20.9-10.8c5.7-2.3,10.1-3.4,10.1-3.4s11.8-11.1,17.5-14.5c5.7-3.4,15.2-2.7,15.2-2.7
	s8.8-43.8,13.8-50.6c5.1-6.8,32.4-8.1,44.2-11.1C414.5,108.3,447.1,105.9,453.5,124.1z"/>
<radialGradient id="SVGID_00000083052021109971144730000000371339101903017354_" cx="-1139.1678" cy="1232.9056" r="39.099" gradientTransform="matrix(2.492 3.4484 4.6296 -3.3454 -2811.396 8264.8203)" gradientUnits="userSpaceOnUse">
	<stop  offset="0.461" style="stop-color:#9079F1"/>
	<stop  offset="0.517" style="stop-color:#8A78EE"/>
	<stop  offset="0.59" style="stop-color:#7A76E5"/>
	<stop  offset="0.67" style="stop-color:#6073D7"/>
	<stop  offset="0.758" style="stop-color:#3B6EC3"/>
	<stop  offset="0.849" style="stop-color:#0D67AA"/>
	<stop  offset="0.854" style="stop-color:#0A67A8"/>
</radialGradient>
<path style="fill:url(#SVGID_00000083052021109971144730000000371339101903017354_);" d="M40.9,371.3c4.2,3.7,10.1-1,37.4-5.7
	c27.3-4.7,73.8-3,79.2-5.1c5.4-2,42.2-10.1,48.2-16.8c6.1-6.8,5.4-49.2,7.4-62.7s8.1-51.6,6.8-59c-1.4-7.4-10.5-5.4-13.1,1.7
	c-2.7,7-16.2,41.7-26.4,46.1c-10.1,4.4-16.5,5.1-19.2,7.4c-2.7,2.3-27.3,28.7-30,29c-2.7,0.3-28-6.8-33.4-4
	c-5.4,2.7-24.9,19.6-29.4,24.6C64.1,331.8,34.5,365.6,40.9,371.3z"/>
<radialGradient id="SVGID_00000102532519105985638690000000184182549531051678_" cx="-1115.0328" cy="1.0145" r="55.124" gradientTransform="matrix(4.2547 0 0 -4.2546 4992.626 403.3947)" gradientUnits="userSpaceOnUse">
	<stop  offset="0.351" style="stop-color:#D0B4F4;stop-opacity:4.900000e-02"/>
	<stop  offset="0.679" style="stop-color:#D0B4F4"/>
</radialGradient>
<path style="fill:url(#SVGID_00000102532519105985638690000000184182549531051678_);" d="M139,281.3c0,0,7.9-60.3,44.4-97.6
	c20.4-20.8,111-3.3,115.2-1.2c4.2,2.1,39.1,108.8,39.1,108.8s-39.6,42.2-41.6,43.7c-2.1,1.6-56.2,41.7-60.4,42.2
	C231.4,377.7,139,281.3,139,281.3z"/>
<radialGradient id="SVGID_00000119813602722758678030000010689805686888792452_" cx="-1104.5367" cy="31.7844" r="19.437" gradientTransform="matrix(4.2547 0 0 -4.2546 4992.626 403.3947)" gradientUnits="userSpaceOnUse">
	<stop  offset="0.189" style="stop-color:#0A67A8"/>
	<stop  offset="1" style="stop-color:#0A67A8;stop-opacity:2.000000e-02"/>
</radialGradient>
<path style="fill:url(#SVGID_00000119813602722758678030000010689805686888792452_);" d="M380.7,186.5c-4.4,15.5-6.4,27.7-9.8,31.4
	c-3.4,3.7-19.9,8.4-22.6,10.1c-2.7,1.7-17.5,26.3-23.3,34.4c-5.8,8.1-31.7,29-41.5,35.7c-9.8,6.7-43.5,31-50.9,21.2
	c-7.4-9.8,11.8-37.4,14.5-40.8c2.7-3.4,19.6-13.1,19.6-13.1s10.5-54.6,14.2-61.1c3.7-6.4,15.2-8.4,20.9-10.8
	c5.7-2.3,10.1-3.4,10.1-3.4s11.8-11.1,17.5-14.5c5.7-3.4,15.2-2.7,15.2-2.7S385.1,171,380.7,186.5z"/>
<radialGradient id="SVGID_00000080900615766624681830000014382456340518345874_" cx="-1121.2179" cy="47.1175" r="17.383" gradientTransform="matrix(4.2547 0 0 -4.2546 4992.626 403.3947)" gradientUnits="userSpaceOnUse">
	<stop  offset="1.100000e-02" style="stop-color:#0A67A8"/>
	<stop  offset="1" style="stop-color:#0A67A8;stop-opacity:2.000000e-02"/>
</radialGradient>
<path style="fill:url(#SVGID_00000080900615766624681830000014382456340518345874_);" d="M157.5,360.5c5.4-2,42.2-10.1,48.2-16.8
	c6.1-6.8,5.4-49.2,7.4-62.7s8.1-51.6,6.8-59c-1.4-7.4-10.5-5.4-13.1,1.7c-2.7,7-16.2,41.7-26.4,46.1c-10.1,4.4-16.5,5.1-19.2,7.4
	c-2.7,2.3-27.3,28.7-30,29c-2.7,0.3-28-6.8-33.4-4C92.5,304.8,152.2,362.5,157.5,360.5z"/>
<path class="st12" d="M218.7,196.2c-1.6,2.9-1.3,7.1,1.8,9.4c3.4,2.6,8,1.5,9.8-1.4c1.8-2.7,2-7.2-2.2-10.1
	C224.6,191.7,220.3,193.3,218.7,196.2z"/>
<path class="st12" d="M251.2,208.3c-1.3,2.3-0.6,4.9,1.9,6.2c2.5,1.2,4.9-0.2,5.7-1.8c1-2-0.2-5.4-2.3-6
	C255,206.1,252.3,206.2,251.2,208.3z"/>
<path class="st12" d="M251.8,226.8c-2.6-0.2-5.1,1.7-5.3,4.9c-0.2,3.2,1.4,5.7,4.8,5.7c3.6,0,5-2.3,5.3-4.4
	C256.9,231,255.8,227.1,251.8,226.8z"/>
<path class="st12" d="M296.4,243.9c-1.1,3.8,1.2,8.2,6.3,8.5c5.1,0.3,7.3-3,7.3-7.4c0-3.5-2.9-6.4-7.2-6.3
	C299.3,238.8,297.2,241.1,296.4,243.9z"/>
<path class="st12" d="M302.1,179.3c2.6,2.2,1.9,5.4,0.2,7c-1.7,1.6-4.7,1.7-6.3,0.2c-2.2-2.1-2-5.1-0.5-6.7
	C297.3,177.8,300.2,177.7,302.1,179.3z"/>
<path class="st12" d="M287.6,314.3c-2.2,2.9-1.4,7,1.7,8.8c2.7,1.6,6.2,1.5,8.3-1.7c2.1-3.2,0.5-7.5-1.7-8.8
	C293.8,311.4,289.9,311.4,287.6,314.3z"/>
<path class="st12" d="M237.9,327.1c-0.1,2.1,1,3.8,3.3,3.9c2.3,0.1,3.3-1.4,3.4-3.3s-1.3-3.5-3.2-3.6c-0.1,0-0.2,0-0.2,0
	C239.4,324.1,238,325.7,237.9,327.1z"/>
<path class="st12" d="M217,300c-0.3,3.4,1.7,5.9,5.1,5.8c3.4-0.1,5.5-1.1,5.6-5.1c0.1-3.9-2.9-5.3-5.3-5.4
	C219.9,295.2,217.2,297,217,300z"/>
<path class="st12" d="M226.2,161.9c-0.3,3.7,2.9,5.5,5.2,5.6c2.9,0.1,5.4-1.2,5.5-5.1c0.1-4.3-2.6-5.6-5.2-5.6
	C229.7,156.8,226.6,158.1,226.2,161.9z"/>
<path class="st13" d="M249.1,172.5c0,0-5.9-17.5-3.6-19.1c2.1-1.6,17.6,7.7,17.6,7.7s12.5-8.9,15-7.2c2.3,1.6-2.1,16.3-2.1,16.3
	s11.7,8.7,11.4,10.9c-0.3,2.7-15.1,5.8-15.1,5.8s-4.4,15.2-7.4,15.5c-2.1,0.2-9.6-14.3-9.6-14.3s-17,2.2-17.7,0.1
	C236.4,184.6,249.1,172.5,249.1,172.5z"/>
<path class="st14" d="M284.7,270.4c0,0,2.7-12.4,4.9-12.9c2.2-0.5,8.8,10.5,8.8,10.5s14.8-1.9,16,0.7c1,2.2-8.3,12.4-8.3,12.4
	s5.8,14.4,4.1,16.3c-1.4,1.6-14.2-3.9-14.2-3.9s-13.1,9.3-13.7,8.2c-1.1-2.1,1.2-15.4,1.2-15.4s-13.4-7.3-12.7-9.7
	C271.4,274.3,284.7,270.4,284.7,270.4L284.7,270.4z"/>
<path class="st15" d="M327.4,204.2c0,0-13.4,5.8-13.5,8.8c-0.2,2.9,16.3,6.3,16.3,6.3s2,15.3,5.3,15.8c3.3,0.5,9.4-13.8,9.4-13.8
	s15.7,1,16.5-1.6c0.9-2.5-10.3-12.6-10.3-12.6s6.8-13.6,4.7-15.5c-2.1-2-15.3,6.3-15.3,6.3s-10.8-11.9-13.6-10.4
	C324.7,188.6,327.4,204.2,327.4,204.2z"/>
<path class="st15" d="M155.4,205.4c0,0-10.4-13.3-12.2-12.7c-1.8,0.6-2.3,17.1-2.3,17.1s-15.6,5-15.6,6.8c0,2.4,13.5,8,13.5,8
	s0.5,16.4,2.8,17.4c2.2,0.9,12-11.1,12-11.1s17.1,3.4,18.4,2.1s-6.2-16.6-6.2-16.6s7.7-13.3,6.2-15.4S155.4,205.4,155.4,205.4z"/>
<path class="st15" d="M218.3,351c0,0,0.1-20.6,3.1-22s13.5,17.1,13.5,17.1s20-7.4,21.4-5.2c1.4,2.1-10.3,20.4-10.3,20.4
	s13.4,18.3,11.2,20.2c-2.1,2-22.2-4.2-22.2-4.2s-13,17-16.2,14.9c-3.4-2.1-1.3-22.3-1.3-22.3s-21.2-6.1-20.7-9.1
	C197.2,357.7,218.3,351,218.3,351z"/>
<path class="st16" d="M172.9,127.5c0,0-8.2-18.7-6.1-21.5c2.1-2.8,21.1,9.1,21.1,9.1s13.8-14.8,16.8-13c3.4,2-1.2,21.4-1.2,21.4
	s17.8,11.4,17.5,14.7c-0.3,3.3-21.1,7.3-21.1,7.3s-6,21.1-8.5,21.4c-2.6,0.3-13-20-13-20s-20.3,0.5-21.3-2.3
	C156.1,141.7,172.9,127.5,172.9,127.5z"/>
<path class="st16" d="M147.1,316.2c-0.2,8.8,4.8,16.4,15.2,16.7c11.4,0.3,15.4-8.8,15.3-16.6c-0.1-7.7-6.2-15.1-15.3-14.6
	C153.1,302.2,147.2,308.2,147.1,316.2z"/>
<path class="st16" d="M352.9,152.7c-5.2,0.1-9.8,3.1-9.6,10.5c0.2,6.6,5.8,9.1,10.2,8.9c4.5-0.2,8.8-2.5,9-9
	C362.7,156.9,358.7,152.6,352.9,152.7z"/>
<path class="st15" d="M431.9,100.3c-8-0.5-12.1,5.6-12.3,13c-0.1,7.4,4.6,13,12.9,12.9c8.2-0.1,11.5-7.3,11.3-13
	C443.5,104.4,438.5,100.7,431.9,100.3z"/>
<path class="st14" d="M33.3,249.6c0,0-15.9-11-17.5-9.4c-1.7,1.6,1.2,20.2,1.2,20.2S3.9,273,4.5,275.2c0.6,1.8,16.8,3,16.8,3
	s7.6,16.3,10.4,16.6c2.9,0.3,9.2-15.6,9.2-15.6s18,0.9,19-1.6C60.8,275,49.2,262,49.2,262s4.6-18.7,2.3-20.1
	C49.3,240.4,33.3,249.6,33.3,249.6z"/>
<path class="st14" d="M95.5,231.6c-0.3,3.7,3.2,6.6,7.1,6.1c3.8-0.6,4.9-3.1,5-6.6s-3.5-6.1-6.4-5.7
	C98.3,225.7,95.8,227.7,95.5,231.6z"/>
<path class="st14" d="M421,232.4c-4,0-7.4,3.1-7.1,7.8c0.3,4.5,3.8,6.7,8.1,6.6c4.3-0.2,6.8-3.9,6.8-7
	C428.8,236.6,426.8,232.5,421,232.4z"/>
<path class="st14" d="M432.7,200.9c-0.3,2.7,2,4.6,4.8,4.6c3.4,0.1,4.8-2,4.7-4.9c-0.2-2.9-2.4-4.1-4.6-4.4S433,197.6,432.7,200.9z"
	/>
<path class="st14" d="M497.7,192.1c0,2,1.4,4.6,4.7,4.5c3.4,0,4.5-2.2,4.7-4.3c0.2-2.2-1.2-4.7-4.8-4.8S497.7,190.1,497.7,192.1z"/>
<path class="st14" d="M427.9,54.2c-3.8,0-8.4,2.5-8.5,9s5.1,9.3,9.4,9.2c4.3-0.1,9-2.9,9-9.1C437.7,57.3,433.4,54.1,427.9,54.2z"/>
<path class="st14" d="M389.1,25.8c-3.7,0.1-6.3,3-6.3,6.5s2.6,6.3,6.6,6.1c4.3-0.2,5.9-3.4,6-6.1C395.6,29,392.9,25.7,389.1,25.8z"
	/>
<path class="st15" d="M138.9,347.6l-9.4,10.8l9.5,12l11.1-11.7L138.9,347.6z"/>
<path class="st15" d="M179.7,401.7c2,2.3,1.7,6.2-1.1,8.2c-2,1.4-5.1,1.2-7.1-0.9c-1.8-1.9-2-5.1,0.1-7.4
	C173.8,399.3,177.6,399.2,179.7,401.7z"/>
<path class="st15" d="M192.7,394.8c-1.8,1.7-1.4,4.2-0.3,5.7c1,1.4,4.3,2.3,6.2,0.3c0.9-1,1.6-4.3-0.1-5.9
	C196.8,393.4,194.3,393.4,192.7,394.8z"/>
<path class="st15" d="M97.9,268.1c-3.2-0.1-4.2,2.6-4.1,4.4c0.1,1.7,1.5,3.7,3.9,3.7s4-2.1,3.9-4.3
	C101.5,269.9,100.3,268.2,97.9,268.1z"/>
<path class="st15" d="M18,309c-4.8,0.3-6.1,3.2-6,7c0.1,3.6,2.4,6,6.8,6.1c3.7,0.1,6.3-2.7,6.3-6.8C25.2,311.1,22.3,308.7,18,309z"
	/>
<path class="st15" d="M101,144.8c-3.4-0.1-5.3,2.6-5.4,5.1c-0.2,3.2,2.3,5.1,5.1,5.1c3.3,0.1,4.6-2.6,4.8-4.8
	C105.6,148.2,104.6,145,101,144.8z"/>
<path class="st15" d="M217.2,51c0,2.8,1.5,4.4,4.2,4.5c2.3,0.1,4.1-1.9,4.1-4.3s-1.8-4.2-4.1-4.2S217.2,48.5,217.2,51z"/>
<path class="st17" d="M177.3,72.3c-2.6-0.2-4.7,1.7-4.8,4.5c-0.1,2.8,1.6,4.5,4.5,4.5c2.9,0,4.6-1.4,4.7-3.7
	C181.8,74.5,180.2,72.5,177.3,72.3z"/>
<path class="st17" d="M188.1,47.9c-3.1,0-4.5,1.7-4.7,4.4s2,4.9,4.3,5c2.9,0.1,5.1-1.7,4.8-5C192.3,49.5,190.5,47.9,188.1,47.9z"/>
<path class="st12" d="M59.8,299.9c-0.9,3,0.9,6.6,5,6.8c4,0.2,5.8-2.4,5.8-5.9c0-2.8-2.3-5.1-5.7-5
	C62.1,295.9,60.5,297.8,59.8,299.9z"/>
<path class="st12" d="M112.3,341.7c-0.8,2.8,0.9,6,4.6,6.2c3.7,0.2,5.4-2.2,5.4-5.4c0-2.6-2.1-4.7-5.3-4.6
	C114.3,338,112.8,339.7,112.3,341.7z"/>
<path class="st12" d="M161.3,371.1c-0.6,2.2,0.7,4.7,3.6,4.9c2.9,0.1,4.2-1.7,4.2-4.3c0-2-1.7-3.7-4.1-3.6
	C162.9,368.1,161.7,369.5,161.3,371.1z"/>
<path class="st12" d="M19.3,386c-0.8,2.8,0.9,6.1,4.6,6.3c3.7,0.2,5.4-2.2,5.4-5.5c0-2.6-2.1-4.7-5.3-4.6
	C21.4,382.2,19.9,383.9,19.3,386z"/>
<path class="st12" d="M331.8,122.5c2,1.7,1.5,4.3,0.2,5.6c-1.3,1.2-3.7,1.4-5,0.2c-1.7-1.7-1.6-4.1-0.4-5.4
	C328.1,121.3,330.3,121.2,331.8,122.5z"/>
<path class="st12" d="M397.7,91.7c3.3,2.8,2.4,7,0.3,9c-2.2,2-6,2.3-8.1,0.3c-2.8-2.6-2.6-6.6-0.6-8.6
	C391.7,89.8,395.2,89.6,397.7,91.7z"/>
<path class="st12" d="M371.1,54.3c2.9,2.5,2.1,6.1,0.2,7.9c-1.9,1.8-5.3,2-7.1,0.2c-2.5-2.3-2.2-5.8-0.6-7.6
	C365.8,52.6,368.9,52.4,371.1,54.3z"/>
<path class="st12" d="M482.9,56.2c2.6,2.2,1.9,5.4,0.2,7c-1.7,1.6-4.7,1.7-6.3,0.2c-2.2-2.1-2-5.1-0.5-6.7
	C478.1,54.7,480.9,54.5,482.9,56.2z"/>
<path class="st12" d="M498.6,42.2c1.7,1.4,1.2,3.5,0.1,4.6c-1.1,1-3.1,1.1-4.1,0.1c-1.4-1.4-1.3-3.4-0.3-4.4
	C495.5,41.2,497.4,41.1,498.6,42.2z"/>
<path class="st12" d="M464.4,174.2c2.7,2.3,2,5.8,0.2,7.5s-5,1.9-6.8,0.2c-2.3-2.2-2.1-5.5-0.5-7.2
	C459.4,172.7,462.4,172.4,464.4,174.2z"/>
<path class="st12" d="M390.1,204.5c2,1.7,1.4,4.1,0.2,5.4c-1.3,1.2-3.6,1.3-4.8,0.2c-1.7-1.6-1.5-3.9-0.4-5.1
	C386.5,203.3,388.6,203.2,390.1,204.5z"/>
</svg>
